<svg width="1200" height="900" viewBox="0 0 1200 900" fill="none" xmlns="http://www.w3.org/2000/svg">
  <rect width="1200" height="900" rx="32" fill="#0C1522"/>
  <rect x="70" y="96" width="1060" height="708" rx="28" fill="url(#bg)" stroke="rgba(255,255,255,0.08)"/>
  <circle cx="250" cy="240" r="76" fill="#10283A" stroke="#39D5FF" stroke-opacity="0.6"/>
  <circle cx="600" cy="450" r="92" fill="#10283A" stroke="#39D5FF" stroke-opacity="0.9"/>
  <circle cx="940" cy="664" r="76" fill="#10283A" stroke="#6EA8FF" stroke-opacity="0.7"/>
  <circle cx="932" cy="232" r="64" fill="#171F31" stroke="#F0D48A" stroke-opacity="0.45"/>
  <path d="M312 274C382 320 460 366 520 402" stroke="url(#lineA)" stroke-width="6" stroke-linecap="round"/>
  <path d="M690 504C760 556 820 596 878 630" stroke="url(#lineB)" stroke-width="6" stroke-linecap="round"/>
  <path d="M676 388C746 344 804 306 868 266" stroke="url(#lineC)" stroke-width="6" stroke-linecap="round"/>
  <path d="M160 690H1040" stroke="rgba(255,255,255,0.12)" stroke-width="2" stroke-dasharray="8 12"/>
  <text x="210" y="248" fill="#E8F8FF" font-size="32" font-family="Arial, sans-serif">Digitization</text>
  <text x="540" y="458" fill="#E8F8FF" font-size="38" font-family="Arial, sans-serif">TRInity</text>
  <text x="880" y="672" fill="#E8F8FF" font-size="30" font-family="Arial, sans-serif">Revenue</text>
  <text x="866" y="238" fill="#F2E5BE" font-size="26" font-family="Arial, sans-serif">TWAI</text>
  <defs>
    <linearGradient id="bg" x1="70" y1="96" x2="1130" y2="804" gradientUnits="userSpaceOnUse">
      <stop stop-color="#0D1825"/>
      <stop offset="1" stop-color="#101C2E"/>
    </linearGradient>
    <linearGradient id="lineA" x1="312" y1="274" x2="520" y2="402" gradientUnits="userSpaceOnUse">
      <stop stop-color="#39D5FF"/>
      <stop offset="1" stop-color="#77E2FF"/>
    </linearGradient>
    <linearGradient id="lineB" x1="690" y1="504" x2="878" y2="630" gradientUnits="userSpaceOnUse">
      <stop stop-color="#39D5FF"/>
      <stop offset="1" stop-color="#6EA8FF"/>
    </linearGradient>
    <linearGradient id="lineC" x1="676" y1="388" x2="868" y2="266" gradientUnits="userSpaceOnUse">
      <stop stop-color="#39D5FF"/>
      <stop offset="1" stop-color="#F0D48A"/>
    </linearGradient>
  </defs>
</svg>
