<svg width="1024" height="1024" version="1.1" xmlns="http://www.w3.org/2000/svg" desc="Created with imagetracer.js version 1.2.6" ><path fill="rgb(0,0,0)" stroke="rgb(0,0,0)" stroke-width="1" opacity="1" d="M 20 20 L 295 20 L 295 295 L 20 295 L 20 20 Z M 59 59 L 59 256 L 256 256 L 256 59 L 59 59 Z " /><path fill="rgb(0,0,0)" stroke="rgb(0,0,0)" stroke-width="1" opacity="1" d="M 335 20 L 492 20 L 492 98 L 453 98 L 453 59.5 L 452.5 59 L 374 59 L 374 98 L 335 98 L 335 20 Z " /><path fill="rgb(0,0,0)" stroke="rgb(0,0,0)" stroke-width="1" opacity="1" d="M 729 20 L 1004 20 L 1004 295 L 729 295 L 729 20 Z M 768 59 L 768 256 L 965 256 L 965 59 L 768 59 Z " /><path fill="rgb(0,0,0)" stroke="rgb(0,0,0)" stroke-width="1" opacity="1" d="M 650 59 L 689 59 L 689 98 L 650 98 L 650 59 Z " /><path fill="rgb(0,0,0)" stroke="rgb(0,0,0)" stroke-width="1" opacity="1" d="M 99 99 L 216 99 L 216 216 L 99 216 L 99 99 Z " /><path fill="rgb(0,0,0)" stroke="rgb(0,0,0)" stroke-width="1" opacity="1" d="M 375 99 L 413 99 L 413 137 L 375 137 L 375 99 Z " /><path fill="rgb(0,0,0)" stroke="rgb(0,0,0)" stroke-width="1" opacity="1" d="M 532 99 L 610 99 L 610 138 L 649 138 L 649 177 L 571 177 L 571 137 L 532 137 L 532 99 Z " /><path fill="rgb(0,0,0)" stroke="rgb(0,0,0)" stroke-width="1" opacity="1" d="M 808 99 L 925 99 L 925 216 L 808 216 L 808 99 Z " /><path fill="rgb(0,0,0)" stroke="rgb(0,0,0)" stroke-width="1" opacity="1" d="M 453 138 L 531 138 L 531 176.5 L 532.5 178 L 571 178 L 571 216 L 531 216 L 531 295 L 493 295 L 493 216.5 L 492.5 216 L 453 216 L 453 138 Z " /><path fill="rgb(0,0,0)" stroke="rgb(0,0,0)" stroke-width="1" opacity="1" d="M 650 178 L 688.5 178 L 689 178.5 L 689 335 L 845.5 335 L 846 335.5 L 846 374 L 807 374 L 807 414 L 847 414 L 847 375 L 886 375 L 886 414 L 925 414 L 925 453 L 886 453 L 886 491.5 L 885.5 492 L 807 492 L 807 571 L 729 571 L 729 493 L 767.5 493 L 768 492.5 L 768 413 L 729 413 L 729 374 L 689 374 L 689 413 L 650.5 413 L 649 414.5 L 649 453 L 531.5 453 L 531 453.5 L 531 469 L 517.5 469 L 507.5 473 L 501.5 478 L 500 478 L 500 479.5 L 495 484.5 L 490.5 492 L 457.5 492 L 457 490.5 L 454 482.5 L 454 474.5 L 457 465.5 L 464.5 458 L 474.5 454 L 479.5 454 L 490.5 458 L 497 464.5 Q 497.87 469.13 501.5 471 L 506.5 471 L 514.5 466 L 516.5 466 L 519 463.5 L 514 453.5 L 504.5 444 L 493 437.5 L 493 374 L 453 374 L 453 335 L 531 335 L 531 373.5 L 532.5 375 L 571 375 L 571 414 L 611 414 L 611 335 L 649.5 335 L 650 334.5 L 650 178 Z " /><path fill="rgb(0,0,0)" stroke="rgb(0,0,0)" stroke-width="1" opacity="1" d="M 375 217 L 453 217 L 453 295 L 414 295 L 414 256 L 375 256 L 375 217 Z " /><path fill="rgb(0,0,0)" stroke="rgb(0,0,0)" stroke-width="1" opacity="1" d="M 335 256 L 374 256 L 374 295 L 335 295 L 335 256 Z " /><path fill="rgb(0,0,0)" stroke="rgb(0,0,0)" stroke-width="1" opacity="1" d="M 571 256 L 610 256 L 610 295 L 571 295 L 571 256 Z " /><path fill="rgb(0,0,0)" stroke="rgb(0,0,0)" stroke-width="1" opacity="1" d="M 375 296 L 413 296 L 413 374 L 375 374 L 375 296 Z " /><path fill="rgb(0,0,0)" stroke="rgb(0,0,0)" stroke-width="1" opacity="1" d="M 20 335 L 136.5 335 L 137 335.5 L 137 373.5 L 138.5 375 L 256 375 L 256 413 L 216 413 L 216 492 L 178 492 L 178 414.5 L 176.5 413 L 59 413 L 59 374 L 20 374 L 20 335 Z " /><path fill="rgb(0,0,0)" stroke="rgb(0,0,0)" stroke-width="1" opacity="1" d="M 256 335 L 295 335 L 295 374 L 256 374 L 256 335 Z " /><path fill="rgb(0,0,0)" stroke="rgb(0,0,0)" stroke-width="1" opacity="1" d="M 926 335 L 1004 335 L 1004 453 L 965 453 L 965 413 L 926 413 L 926 335 Z " /><path fill="rgb(0,0,0)" stroke="rgb(0,0,0)" stroke-width="1" opacity="1" d="M 296 375 L 374 375 L 374 413 L 296 413 L 296 375 Z " /><path fill="rgb(0,0,0)" stroke="rgb(0,0,0)" stroke-width="1" opacity="1" d="M 256 414 L 295 414 L 295 453 L 256 453 L 256 414 Z " /><path fill="rgb(0,0,0)" stroke="rgb(0,0,0)" stroke-width="1" opacity="1" d="M 375 414 L 453 414 L 453 443 L 451.5 443 L 445 449.5 L 445 451 Q 442.33 449.88 443 452.5 L 440 456.5 L 435 468.5 Q 435.75 471.75 434 472.5 L 434 484.5 L 435 485.5 L 435 489.5 L 437 492.5 L 438 497.5 L 441 501.5 L 443 508.5 L 445 510.5 L 445 512.5 L 453 528.5 L 453 571 L 492 571 L 492 610 L 453 610 L 453 571 L 413 571 L 413 610 L 375 610 L 375 571 L 296 571 L 296 532 L 335 532 L 335 493.5 L 335.5 493 L 414 493 L 414 453 L 375 453 L 375 414 Z " /><path fill="rgb(0,0,0)" stroke="rgb(0,0,0)" stroke-width="1" opacity="1" d="M 690 414 L 728 414 L 728 492 L 689 492 L 689 571 L 728 571 L 728 610 L 689 610 L 689 650 L 768 650 L 768 611 L 847 611 L 847 571 L 925 571 L 925 610 L 886 610 L 886 649 L 847.5 649 L 846 650.5 L 846 885.5 L 847.5 887 L 886 887 L 886 925 L 847.5 925 L 846 926.5 L 846 965 L 768 965 L 768 1004 L 729 1004 L 729 926 L 768 926 L 768 887 L 806.5 887 L 808 885.5 L 808 847.5 L 806.5 846 L 729.5 846 L 728 847.5 L 728 925 L 689 925 L 689 1004 L 611 1004 L 611 847.5 L 609.5 846 L 571 846 L 571 886 L 532 886 L 532 808 L 650 808 L 650 649 L 571 649 L 571 580.5 L 579 573.5 L 585 563.5 L 588 554.5 L 588 538.5 L 584 526.5 L 575 508.5 L 575 506.5 L 572 502.5 L 571 499.5 L 571 493 L 610 493 L 610 532 L 650 532 L 650 453 L 690 453 L 690 414 Z M 689 689 L 689 808 L 808 808 L 808 689 L 689 689 Z M 651 846 L 649 848 L 649 886 L 651 887 L 689 887 L 690 886 L 690 848 L 689 846 L 651 846 Z " /><path fill="rgb(0,0,0)" stroke="rgb(0,0,0)" stroke-width="1" opacity="1" d="M 296 453 L 334 453 L 334 492 L 296 492 L 296 453 Z " /><path fill="rgb(0,0,0)" stroke="rgb(0,0,0)" stroke-width="1" opacity="1" d="M 523.5 485 L 531 485 L 531 489.5 L 529.5 489 L 522.5 489 L 516.5 492 L 512.5 492 L 512 491.5 L 514.5 489 L 519.5 486 Q 522.75 486.75 523.5 485 Z " /><path fill="rgb(0,0,0)" stroke="rgb(0,0,0)" stroke-width="1" opacity="1" d="M 20 493 L 98 493 L 98 571 L 137 571 L 137 610 L 20 610 L 20 571 L 59 571 L 59 531 L 20 531 L 20 493 Z " /><path fill="rgb(0,0,0)" stroke="rgb(0,0,0)" stroke-width="1" opacity="1" d="M 138 493 L 177 493 L 177 571 L 138 571 L 138 493 Z " /><path fill="rgb(0,0,0)" stroke="rgb(0,0,0)" stroke-width="1" opacity="1" d="M 217 493 L 295 493 L 295 531 L 256 531 L 256 571 L 295 571 L 295 610 L 256 610 L 256 571 L 217 571 L 217 493 Z " /><path fill="rgb(0,0,0)" stroke="rgb(0,0,0)" stroke-width="1" opacity="1" d="M 965 493 L 1004 493 L 1004 610 L 965 610 L 965 571 L 926 571 L 926 532 L 965 532 L 965 493 Z " /><path fill="rgb(0,0,0)" stroke="rgb(0,0,0)" stroke-width="1" opacity="1" d="M 178 571 L 216 571 L 216 610 L 178 610 L 178 571 Z " /><path fill="rgb(0,0,0)" stroke="rgb(0,0,0)" stroke-width="1" opacity="1" d="M 138 611 L 177 611 L 177 650 L 217 650 L 217 611 L 256 611 L 256 650 L 296 650 L 296 611 L 374 611 L 374 690 L 453 690 L 453 728 L 335.5 728 L 335 727.5 L 335 689.5 L 334.5 689 L 20.5 689 L 20 688.5 L 20 650 L 137.5 650 L 138 649.5 L 138 611 Z " /><path fill="rgb(0,0,0)" stroke="rgb(0,0,0)" stroke-width="1" opacity="1" d="M 414 611 L 453 611 L 453 649 L 414 649 L 414 611 Z " /><path fill="rgb(0,0,0)" stroke="rgb(0,0,0)" stroke-width="1" opacity="1" d="M 453 650 L 531 650 L 531 688.5 L 532.5 690 L 610 690 L 610 768 L 571 768 L 571 728 L 531 728 L 531 807 L 453 807 L 453 768 L 493 768 L 493 689 L 453 689 L 453 650 Z " /><path fill="rgb(0,0,0)" stroke="rgb(0,0,0)" stroke-width="1" opacity="1" d="M 926 650 L 965 650 L 965 689 L 926 689 L 926 650 Z " /><path fill="rgb(0,0,0)" stroke="rgb(0,0,0)" stroke-width="1" opacity="1" d="M 965 690 L 1003.5 690 L 1004 690.5 L 1004 846 L 965.5 846 L 965 845.5 L 965 690 Z " /><path fill="rgb(0,0,0)" stroke="rgb(0,0,0)" stroke-width="1" opacity="1" d="M 20 729 L 295 729 L 295 1004 L 20 1004 L 20 729 Z M 59 768 L 59 965 L 256 965 L 256 768 L 59 768 Z " /><path fill="rgb(0,0,0)" stroke="rgb(0,0,0)" stroke-width="1" opacity="1" d="M 729 729 L 768 729 L 768 768 L 729 768 L 729 729 Z " /><path fill="rgb(0,0,0)" stroke="rgb(0,0,0)" stroke-width="1" opacity="1" d="M 335 768 L 413 768 L 413 807 L 335 807 L 335 768 Z " /><path fill="rgb(0,0,0)" stroke="rgb(0,0,0)" stroke-width="1" opacity="1" d="M 99 808 L 216 808 L 216 925 L 99 925 L 99 808 Z " /><path fill="rgb(0,0,0)" stroke="rgb(0,0,0)" stroke-width="1" opacity="1" d="M 414 847 L 453 847 L 453 886 L 414 886 L 414 847 Z " /><path fill="rgb(0,0,0)" stroke="rgb(0,0,0)" stroke-width="1" opacity="1" d="M 887 847 L 965 847 L 965 887 L 1004 887 L 1004 925 L 926 925 L 926 886 L 887 886 L 887 847 Z " /><path fill="rgb(0,0,0)" stroke="rgb(0,0,0)" stroke-width="1" opacity="1" d="M 335 887 L 413 887 L 413 925 L 374 925 L 374 1004 L 335 1004 L 335 887 Z " /><path fill="rgb(0,0,0)" stroke="rgb(0,0,0)" stroke-width="1" opacity="1" d="M 453 887 L 492 887 L 492 925 L 453 925 L 453 887 Z " /><path fill="rgb(0,0,0)" stroke="rgb(0,0,0)" stroke-width="1" opacity="1" d="M 414 926 L 453 926 L 453 964.5 L 453.5 965 L 532 965 L 532 926 L 571 926 L 571 1004 L 414 1004 L 414 926 Z " /><path fill="rgb(0,0,0)" stroke="rgb(0,0,0)" stroke-width="1" opacity="1" d="M 847 965 L 886 965 L 886 1004 L 847 1004 L 847 965 Z " /><path fill="rgb(0,0,0)" stroke="rgb(0,0,0)" stroke-width="1" opacity="1" d="M 965 965 L 1004 965 L 1004 1004 L 965 1004 L 965 965 Z " /><path fill="rgb(232,228,230)" stroke="rgb(232,228,230)" stroke-width="1" opacity="1" d="M 19.5 19 L 19.5 20 L 19.5 19 Z " /><path fill="rgb(232,228,230)" stroke="rgb(232,228,230)" stroke-width="1" opacity="1" d="M 295.5 19 L 295.5 20 L 295.5 19 Z " /><path fill="rgb(232,228,230)" stroke="rgb(232,228,230)" stroke-width="1" opacity="1" d="M 334.5 19 L 335 98.5 L 334 98.5 L 334.5 19 Z " /><path fill="rgb(232,228,230)" stroke="rgb(232,228,230)" stroke-width="1" opacity="1" d="M 492.5 19 L 492.5 20 L 492.5 19 Z " /><path fill="rgb(232,228,230)" stroke="rgb(232,228,230)" stroke-width="1" opacity="1" d="M 728.5 19 L 728.5 20 L 728.5 19 Z " /><path fill="rgb(232,228,230)" stroke="rgb(232,228,230)" stroke-width="1" opacity="1" d="M 1004.5 19 L 1004.5 20 L 1004.5 19 Z " /><path fill="rgb(232,228,230)" stroke="rgb(232,228,230)" stroke-width="1" opacity="1" d="M 59 59 L 256 59.5 L 60 60 L 59.5 256 L 59 59 Z " /><path fill="rgb(232,228,230)" stroke="rgb(232,228,230)" stroke-width="1" opacity="1" d="M 374 59 L 453 59 L 453 97.5 L 452 97.5 L 452 60 L 375 60 L 374.5 98 L 374 59 Z " /><path fill="rgb(232,228,230)" stroke="rgb(232,228,230)" stroke-width="1" opacity="1" d="M 649.5 59 L 650 98.5 L 649 98.5 L 649.5 59 Z " /><path fill="rgb(232,228,230)" stroke="rgb(232,228,230)" stroke-width="1" opacity="1" d="M 689.5 59 L 690 98.5 L 689 98.5 L 689.5 59 Z " /><path fill="rgb(232,228,230)" stroke="rgb(232,228,230)" stroke-width="1" opacity="1" d="M 768.5 59 L 965 59 L 965 255.5 L 964 255.5 L 964 60 L 768.5 60 L 768.5 59 Z " /><path fill="rgb(232,228,230)" stroke="rgb(232,228,230)" stroke-width="1" opacity="1" d="M 492.5 98 L 492.5 99 L 492.5 98 Z " /><path fill="rgb(232,228,230)" stroke="rgb(232,228,230)" stroke-width="1" opacity="1" d="M 531.5 98 L 531.5 99 L 531.5 98 Z " /><path fill="rgb(232,228,230)" stroke="rgb(232,228,230)" stroke-width="1" opacity="1" d="M 453.5 137 L 531 137.5 L 453 138 L 452.5 216 L 452 138.5 L 453.5 137 Z " /><path fill="rgb(232,228,230)" stroke="rgb(232,228,230)" stroke-width="1" opacity="1" d="M 611.5 137 L 650 137.5 L 611.5 138 L 611.5 137 Z " /><path fill="rgb(232,228,230)" stroke="rgb(232,228,230)" stroke-width="1" opacity="1" d="M 572.5 177 L 648.5 177 L 650 178.5 L 650 333.5 L 648.5 335 L 610 334.5 L 649 334 L 649 178 L 572 178 L 571.5 216 L 571 178.5 L 572.5 177 Z " /><path fill="rgb(232,228,230)" stroke="rgb(232,228,230)" stroke-width="1" opacity="1" d="M 689.5 177 L 690 334 L 847 334.5 L 690.5 335 L 689 333.5 L 689.5 177 Z " /><path fill="rgb(232,228,230)" stroke="rgb(232,228,230)" stroke-width="1" opacity="1" d="M 334.5 256 L 335 295.5 L 334 295.5 L 334.5 256 Z " /><path fill="rgb(232,228,230)" stroke="rgb(232,228,230)" stroke-width="1" opacity="1" d="M 374.5 256 L 375 294.5 L 374 294.5 L 374.5 256 Z " /><path fill="rgb(232,228,230)" stroke="rgb(232,228,230)" stroke-width="1" opacity="1" d="M 19.5 295 L 19.5 296 L 19.5 295 Z " /><path fill="rgb(232,228,230)" stroke="rgb(232,228,230)" stroke-width="1" opacity="1" d="M 295.5 295 L 295.5 296 L 295.5 295 Z " /><path fill="rgb(232,228,230)" stroke="rgb(232,228,230)" stroke-width="1" opacity="1" d="M 610.5 295 L 610.5 296 L 610.5 295 Z " /><path fill="rgb(232,228,230)" stroke="rgb(232,228,230)" stroke-width="1" opacity="1" d="M 728.5 295 L 728.5 296 L 728.5 295 Z " /><path fill="rgb(232,228,230)" stroke="rgb(232,228,230)" stroke-width="1" opacity="1" d="M 1004.5 295 L 1004.5 296 L 1004.5 295 Z " /><path fill="rgb(232,228,230)" stroke="rgb(232,228,230)" stroke-width="1" opacity="1" d="M 19.5 334 L 138 334.5 L 19.5 335 L 19.5 334 Z " /><path fill="rgb(232,228,230)" stroke="rgb(232,228,230)" stroke-width="1" opacity="1" d="M 256.5 334 L 296 334.5 L 256.5 335 L 256.5 334 Z " /><path fill="rgb(232,228,230)" stroke="rgb(232,228,230)" stroke-width="1" opacity="1" d="M 453.5 334 L 532 334.5 L 453 335 L 453 374 L 491.5 374 L 491.5 375 L 453.5 375 L 452 373.5 L 452 335.5 L 453.5 334 Z " /><path fill="rgb(232,228,230)" stroke="rgb(232,228,230)" stroke-width="1" opacity="1" d="M 925.5 334 L 1005 334.5 L 925.5 335 L 925.5 334 Z " /><path fill="rgb(232,228,230)" stroke="rgb(232,228,230)" stroke-width="1" opacity="1" d="M 20.5 374 L 59 374.5 L 20.5 375 L 20.5 374 Z " /><path fill="rgb(232,228,230)" stroke="rgb(232,228,230)" stroke-width="1" opacity="1" d="M 256.5 374 L 295 374.5 L 256.5 375 L 256.5 374 Z " /><path fill="rgb(232,228,230)" stroke="rgb(232,228,230)" stroke-width="1" opacity="1" d="M 375.5 374 L 414 374.5 L 375 375 L 374.5 413 L 374 375.5 L 375.5 374 Z " /><path fill="rgb(232,228,230)" stroke="rgb(232,228,230)" stroke-width="1" opacity="1" d="M 571.5 374 L 572 412.5 L 571 412.5 L 571.5 374 Z " /><path fill="rgb(232,228,230)" stroke="rgb(232,228,230)" stroke-width="1" opacity="1" d="M 690.5 374 L 728 374.5 L 690 375 L 689.5 413 L 689 375.5 L 690.5 374 Z " /><path fill="rgb(232,228,230)" stroke="rgb(232,228,230)" stroke-width="1" opacity="1" d="M 808.5 374 L 845.5 374 L 847 375.5 L 846.5 413 L 846 375 L 808.5 375 L 808.5 374 Z " /><path fill="rgb(232,228,230)" stroke="rgb(232,228,230)" stroke-width="1" opacity="1" d="M 886.5 374 L 887 412.5 L 886 412.5 L 886.5 374 Z " /><path fill="rgb(232,228,230)" stroke="rgb(232,228,230)" stroke-width="1" opacity="1" d="M 964.5 414 L 965 452.5 L 964 452.5 L 964.5 414 Z " /><path fill="rgb(232,228,230)" stroke="rgb(232,228,230)" stroke-width="1" opacity="1" d="M 468.5 435 L 484.5 435 L 491 437.5 L 489.5 438 L 488.5 437 Q 483.75 438.25 482.5 436 L 470.5 436 L 469.5 437 Q 465.33 436.33 463.5 438 L 463.5 437 L 468.5 435 Z " /><path fill="rgb(232,228,230)" stroke="rgb(232,228,230)" stroke-width="1" opacity="1" d="M 460.5 438 L 462 438.5 L 453.5 443 Q 452 442 454.5 441 L 460.5 438 Z " /><path fill="rgb(232,228,230)" stroke="rgb(232,228,230)" stroke-width="1" opacity="1" d="M 296.5 452 L 335 452.5 L 296.5 453 L 296.5 452 Z " /><path fill="rgb(232,228,230)" stroke="rgb(232,228,230)" stroke-width="1" opacity="1" d="M 650.5 452 L 689 452.5 L 650 453 L 649.5 531 L 649 453.5 L 650.5 452 Z " /><path fill="rgb(232,228,230)" stroke="rgb(232,228,230)" stroke-width="1" opacity="1" d="M 886.5 453 L 887 491.5 L 886 491.5 L 886.5 453 Z " /><path fill="rgb(232,228,230)" stroke="rgb(232,228,230)" stroke-width="1" opacity="1" d="M 532.5 466 L 535 466.5 L 532.5 467 L 532.5 466 Z " /><path fill="rgb(232,228,230)" stroke="rgb(232,228,230)" stroke-width="1" opacity="1" d="M 536.5 467 L 540.5 467 L 546 469.5 L 544.5 470 L 540.5 468 L 536.5 468 L 536.5 467 Z " /><path fill="rgb(232,228,230)" stroke="rgb(232,228,230)" stroke-width="1" opacity="1" d="M 547.5 470 Q 556.54 473.46 562 480.5 L 561.5 481 L 557.5 477 L 547.5 471 L 547.5 470 Z " /><path fill="rgb(232,228,230)" stroke="rgb(232,228,230)" stroke-width="1" opacity="1" d="M 562.5 482 L 565 484.5 L 564.5 485 L 562 482.5 L 562.5 482 Z " /><path fill="rgb(232,228,230)" stroke="rgb(232,228,230)" stroke-width="1" opacity="1" d="M 532.5 486 L 532.5 487 L 532.5 486 Z " /><path fill="rgb(232,228,230)" stroke="rgb(232,228,230)" stroke-width="1" opacity="1" d="M 565.5 486 L 570 493.5 L 569 493.5 L 565 486.5 L 565.5 486 Z " /><path fill="rgb(232,228,230)" stroke="rgb(232,228,230)" stroke-width="1" opacity="1" d="M 534.5 487 L 541.5 489 L 549 496.5 L 555 507.5 Q 554 509 553 506.5 L 548 496.5 L 541.5 490 L 534.5 488 L 534.5 487 Z " /><path fill="rgb(232,228,230)" stroke="rgb(232,228,230)" stroke-width="1" opacity="1" d="M 19.5 492 L 19.5 493 L 19.5 492 Z " /><path fill="rgb(232,228,230)" stroke="rgb(232,228,230)" stroke-width="1" opacity="1" d="M 137.5 492 L 138 571 L 177 571 L 177 493.5 L 178 493.5 L 178 570.5 L 176.5 572 L 138.5 572 L 137 570.5 L 137.5 492 Z " /><path fill="rgb(232,228,230)" stroke="rgb(232,228,230)" stroke-width="1" opacity="1" d="M 532.5 492 Q 535.49 495.51 536 501.5 L 535 501.5 L 532 493.5 L 532.5 492 Z " /><path fill="rgb(232,228,230)" stroke="rgb(232,228,230)" stroke-width="1" opacity="1" d="M 1004.5 492 L 1004.5 493 L 1004.5 492 Z " /><path fill="rgb(232,228,230)" stroke="rgb(232,228,230)" stroke-width="1" opacity="1" d="M 334.5 493 L 335 530.5 L 334 530.5 L 334.5 493 Z " /><path fill="rgb(232,228,230)" stroke="rgb(232,228,230)" stroke-width="1" opacity="1" d="M 457.5 493 L 460 496.5 L 460 498.5 L 465 508.5 L 464 508.5 L 458 496.5 L 457.5 493 Z " /><path fill="rgb(232,228,230)" stroke="rgb(232,228,230)" stroke-width="1" opacity="1" d="M 511.5 493 L 511.5 494 L 511.5 493 Z " /><path fill="rgb(232,228,230)" stroke="rgb(232,228,230)" stroke-width="1" opacity="1" d="M 515.5 493 L 515 494.5 L 515 499.5 L 517 503.5 L 516 503.5 L 514 499.5 L 514 494.5 L 515.5 493 Z " /><path fill="rgb(232,228,230)" stroke="rgb(232,228,230)" stroke-width="1" opacity="1" d="M 689.5 493 L 690 570.5 L 689 570.5 L 689.5 493 Z " /><path fill="rgb(232,228,230)" stroke="rgb(232,228,230)" stroke-width="1" opacity="1" d="M 964.5 493 L 965 530.5 L 964 530.5 L 964.5 493 Z " /><path fill="rgb(232,228,230)" stroke="rgb(232,228,230)" stroke-width="1" opacity="1" d="M 488.5 494 L 488.5 495 L 488.5 494 Z " /><path fill="rgb(232,228,230)" stroke="rgb(232,228,230)" stroke-width="1" opacity="1" d="M 510.5 495 L 511 495.5 L 509 497.5 L 507.5 500 L 508 498.5 L 510.5 495 Z " /><path fill="rgb(232,228,230)" stroke="rgb(232,228,230)" stroke-width="1" opacity="1" d="M 570.5 495 L 570.5 496 L 570.5 495 Z " /><path fill="rgb(232,228,230)" stroke="rgb(232,228,230)" stroke-width="1" opacity="1" d="M 487.5 496 L 488 497.5 L 487 498.5 L 486.5 503 L 486 498.5 L 487.5 496 Z " /><path fill="rgb(232,228,230)" stroke="rgb(232,228,230)" stroke-width="1" opacity="1" d="M 506.5 502 L 507 503.5 L 506 503.5 L 506.5 502 Z " /><path fill="rgb(232,228,230)" stroke="rgb(232,228,230)" stroke-width="1" opacity="1" d="M 536.5 503 L 538 506.5 L 538 522.5 L 534 534.5 L 525.5 546 L 524 546 Q 525.13 548.67 522.5 548 L 514.5 554 L 506.5 557 Q 502.5 556 501.5 558 L 489.5 558 L 489.5 557 L 501.5 557 L 502.5 556 L 505.5 556 L 511.5 554 Q 522.46 549.46 529 540.5 L 536 526.5 Q 535 522.5 537 521.5 L 537 507.5 Q 534.87 506.37 536.5 503 Z " /><path fill="rgb(232,228,230)" stroke="rgb(232,228,230)" stroke-width="1" opacity="1" d="M 485.5 504 L 486 516.5 L 485 516.5 L 485.5 504 Z " /><path fill="rgb(232,228,230)" stroke="rgb(232,228,230)" stroke-width="1" opacity="1" d="M 517.5 505 L 519 507.5 L 519 512.5 L 520 515.5 Q 517.75 516.75 519 521.5 L 517.5 524 L 517 522.5 L 518 521.5 L 518 508.5 Q 516.08 507.58 517.5 505 Z " /><path fill="rgb(232,228,230)" stroke="rgb(232,228,230)" stroke-width="1" opacity="1" d="M 505.5 506 L 506 513.5 L 505 513.5 L 505.5 506 Z " /><path fill="rgb(232,228,230)" stroke="rgb(232,228,230)" stroke-width="1" opacity="1" d="M 555.5 509 L 555.5 510 L 555.5 509 Z " /><path fill="rgb(232,228,230)" stroke="rgb(232,228,230)" stroke-width="1" opacity="1" d="M 465.5 510 L 469 516.5 Q 468 518 467 515.5 L 465 511.5 L 465.5 510 Z " /><path fill="rgb(232,228,230)" stroke="rgb(232,228,230)" stroke-width="1" opacity="1" d="M 556.5 511 L 556.5 512 L 556.5 511 Z " /><path fill="rgb(232,228,230)" stroke="rgb(232,228,230)" stroke-width="1" opacity="1" d="M 557.5 513 L 559 515.5 L 558 515.5 L 557.5 513 Z " /><path fill="rgb(232,228,230)" stroke="rgb(232,228,230)" stroke-width="1" opacity="1" d="M 506.5 516 L 507 517.5 L 506 517.5 L 506.5 516 Z " /><path fill="rgb(232,228,230)" stroke="rgb(232,228,230)" stroke-width="1" opacity="1" d="M 559.5 517 L 559.5 518 L 559.5 517 Z " /><path fill="rgb(232,228,230)" stroke="rgb(232,228,230)" stroke-width="1" opacity="1" d="M 469.5 518 L 474 526.5 L 479.5 533 L 488.5 538 L 501.5 538 L 507.5 535 L 511.5 531 L 513 531 L 513 529.5 L 516.5 525 L 516 526.5 Q 514.62 532.62 509.5 535 L 501.5 539 L 493.5 540 L 492.5 539 L 488.5 539 L 483.5 537 L 474 528.5 L 470 521.5 L 469.5 518 Z " /><path fill="rgb(232,228,230)" stroke="rgb(232,228,230)" stroke-width="1" opacity="1" d="M 486.5 518 L 488 524.5 L 487 524.5 L 486 521.5 L 486.5 518 Z " /><path fill="rgb(232,228,230)" stroke="rgb(232,228,230)" stroke-width="1" opacity="1" d="M 560.5 519 L 563 524.5 L 562 524.5 L 560 520.5 L 560.5 519 Z " /><path fill="rgb(232,228,230)" stroke="rgb(232,228,230)" stroke-width="1" opacity="1" d="M 507.5 520 L 507.5 521 L 507.5 520 Z " /><path fill="rgb(232,228,230)" stroke="rgb(232,228,230)" stroke-width="1" opacity="1" d="M 508.5 522 L 510 524.5 Q 509 526 508 523.5 L 508.5 522 Z " /><path fill="rgb(232,228,230)" stroke="rgb(232,228,230)" stroke-width="1" opacity="1" d="M 488.5 526 L 488.5 527 L 488.5 526 Z " /><path fill="rgb(232,228,230)" stroke="rgb(232,228,230)" stroke-width="1" opacity="1" d="M 510.5 526 L 511 528.5 L 510 528.5 L 510.5 526 Z " /><path fill="rgb(232,228,230)" stroke="rgb(232,228,230)" stroke-width="1" opacity="1" d="M 563.5 526 L 563.5 527 L 563.5 526 Z " /><path fill="rgb(232,228,230)" stroke="rgb(232,228,230)" stroke-width="1" opacity="1" d="M 453.5 527 Q 458.5 541 469.5 549 L 478.5 554 L 488 556.5 L 484.5 557 L 470.5 551 L 461 542.5 L 454 531.5 L 453.5 527 Z " /><path fill="rgb(232,228,230)" stroke="rgb(232,228,230)" stroke-width="1" opacity="1" d="M 489.5 528 Q 490.78 533.22 494.5 536 L 499.5 536 L 503.5 534 Q 505 535 502.5 536 L 499.5 537 L 494.5 537 Q 489.66 533.91 489.5 528 Z " /><path fill="rgb(232,228,230)" stroke="rgb(232,228,230)" stroke-width="1" opacity="1" d="M 564.5 528 L 567 534.5 L 566 534.5 L 564 529.5 L 564.5 528 Z " /><path fill="rgb(232,228,230)" stroke="rgb(232,228,230)" stroke-width="1" opacity="1" d="M 509.5 530 L 510 530.5 L 507.5 533 L 507 532.5 L 509.5 530 Z " /><path fill="rgb(232,228,230)" stroke="rgb(232,228,230)" stroke-width="1" opacity="1" d="M 19.5 531 L 19.5 532 L 19.5 531 Z " /><path fill="rgb(232,228,230)" stroke="rgb(232,228,230)" stroke-width="1" opacity="1" d="M 925.5 531 L 925.5 532 L 925.5 531 Z " /><path fill="rgb(232,228,230)" stroke="rgb(232,228,230)" stroke-width="1" opacity="1" d="M 505.5 533 L 505.5 534 L 505.5 533 Z " /><path fill="rgb(232,228,230)" stroke="rgb(232,228,230)" stroke-width="1" opacity="1" d="M 567.5 536 L 567.5 537 L 567.5 536 Z " /><path fill="rgb(232,228,230)" stroke="rgb(232,228,230)" stroke-width="1" opacity="1" d="M 568.5 539 L 568.5 540 L 568.5 539 Z " /><path fill="rgb(232,228,230)" stroke="rgb(232,228,230)" stroke-width="1" opacity="1" d="M 569.5 542 L 570 551.5 L 569 551.5 L 569.5 542 Z " /><path fill="rgb(232,228,230)" stroke="rgb(232,228,230)" stroke-width="1" opacity="1" d="M 520.5 552 L 524 554.5 L 523.5 555 L 521.5 553 L 517.5 555 Q 516 554 518.5 553 L 520.5 552 Z " /><path fill="rgb(232,228,230)" stroke="rgb(232,228,230)" stroke-width="1" opacity="1" d="M 568.5 553 L 569 554.5 L 568 554.5 L 568.5 553 Z " /><path fill="rgb(232,228,230)" stroke="rgb(232,228,230)" stroke-width="1" opacity="1" d="M 514.5 555 L 516 555.5 L 510.5 558 L 510.5 557 L 514.5 555 Z " /><path fill="rgb(232,228,230)" stroke="rgb(232,228,230)" stroke-width="1" opacity="1" d="M 524.5 556 L 534 566.5 L 533.5 567 L 525 558.5 L 524.5 556 Z " /><path fill="rgb(232,228,230)" stroke="rgb(232,228,230)" stroke-width="1" opacity="1" d="M 567.5 556 L 567.5 557 L 567.5 556 Z " /><path fill="rgb(232,228,230)" stroke="rgb(232,228,230)" stroke-width="1" opacity="1" d="M 507.5 558 L 509 558.5 L 507.5 559 L 507.5 558 Z " /><path fill="rgb(232,228,230)" stroke="rgb(232,228,230)" stroke-width="1" opacity="1" d="M 566.5 558 L 566 559.5 L 560.5 566 L 560 565.5 L 565 560.5 L 566.5 558 Z " /><path fill="rgb(232,228,230)" stroke="rgb(232,228,230)" stroke-width="1" opacity="1" d="M 505.5 559 L 505.5 560 L 505.5 559 Z " /><path fill="rgb(232,228,230)" stroke="rgb(232,228,230)" stroke-width="1" opacity="1" d="M 505.5 563 L 505.5 564 L 505.5 563 Z " /><path fill="rgb(232,228,230)" stroke="rgb(232,228,230)" stroke-width="1" opacity="1" d="M 506.5 565 L 509 568.5 Q 508 570 507 567.5 L 506.5 565 Z " /><path fill="rgb(232,228,230)" stroke="rgb(232,228,230)" stroke-width="1" opacity="1" d="M 535.5 567 L 535.5 568 L 535.5 567 Z " /><path fill="rgb(232,228,230)" stroke="rgb(232,228,230)" stroke-width="1" opacity="1" d="M 556.5 567 L 558 567.5 L 552.5 570 L 547.5 570 L 547.5 569 L 552.5 569 L 556.5 567 Z " /><path fill="rgb(232,228,230)" stroke="rgb(232,228,230)" stroke-width="1" opacity="1" d="M 537.5 568 L 539.5 569 L 546 569.5 L 539.5 570 L 537 568.5 L 537.5 568 Z " /><path fill="rgb(232,228,230)" stroke="rgb(232,228,230)" stroke-width="1" opacity="1" d="M 509.5 570 L 512 572.5 L 511.5 573 L 509 570.5 L 509.5 570 Z " /><path fill="rgb(232,228,230)" stroke="rgb(232,228,230)" stroke-width="1" opacity="1" d="M 217.5 571 L 256 571.5 L 217.5 572 L 217.5 571 Z " /><path fill="rgb(232,228,230)" stroke="rgb(232,228,230)" stroke-width="1" opacity="1" d="M 296.5 571 L 374 571.5 L 296.5 572 L 296.5 571 Z " /><path fill="rgb(232,228,230)" stroke="rgb(232,228,230)" stroke-width="1" opacity="1" d="M 414.5 571 L 453 571 L 453 609.5 L 452 609.5 L 452 572 L 414.5 572 L 414.5 571 Z " /><path fill="rgb(232,228,230)" stroke="rgb(232,228,230)" stroke-width="1" opacity="1" d="M 729.5 571 L 807 571.5 L 729.5 572 L 729.5 571 Z " /><path fill="rgb(232,228,230)" stroke="rgb(232,228,230)" stroke-width="1" opacity="1" d="M 846.5 571 L 847 609.5 L 846 609.5 L 846.5 571 Z " /><path fill="rgb(232,228,230)" stroke="rgb(232,228,230)" stroke-width="1" opacity="1" d="M 926.5 571 L 965 571 L 965 609.5 L 964 609.5 L 964 572 L 926.5 572 L 926.5 571 Z " /><path fill="rgb(232,228,230)" stroke="rgb(232,228,230)" stroke-width="1" opacity="1" d="M 513.5 575 Q 516 576 514.5 577 Q 512 576 513.5 575 Z " /><path fill="rgb(232,228,230)" stroke="rgb(232,228,230)" stroke-width="1" opacity="1" d="M 517.5 578 L 520 580.5 L 519.5 581 L 517 578.5 L 517.5 578 Z " /><path fill="rgb(232,228,230)" stroke="rgb(232,228,230)" stroke-width="1" opacity="1" d="M 521.5 581 L 526 584.5 L 524.5 584 L 521 581.5 L 521.5 581 Z " /><path fill="rgb(232,228,230)" stroke="rgb(232,228,230)" stroke-width="1" opacity="1" d="M 568.5 583 L 570 583.5 L 567.5 585 Q 566 584 568.5 583 Z " /><path fill="rgb(232,228,230)" stroke="rgb(232,228,230)" stroke-width="1" opacity="1" d="M 527.5 585 L 529 585.5 L 527.5 586 L 527.5 585 Z " /><path fill="rgb(232,228,230)" stroke="rgb(232,228,230)" stroke-width="1" opacity="1" d="M 564.5 585 L 566 585.5 L 564.5 586 L 564.5 585 Z " /><path fill="rgb(232,228,230)" stroke="rgb(232,228,230)" stroke-width="1" opacity="1" d="M 530.5 586 L 537 588.5 L 534.5 589 L 531.5 588 Q 529 587 530.5 586 Z " /><path fill="rgb(232,228,230)" stroke="rgb(232,228,230)" stroke-width="1" opacity="1" d="M 562.5 586 Q 564 587 561.5 588 L 556.5 589 L 556.5 588 L 562.5 586 Z " /><path fill="rgb(232,228,230)" stroke="rgb(232,228,230)" stroke-width="1" opacity="1" d="M 539.5 589 L 543 589.5 L 539.5 590 L 539.5 589 Z " /><path fill="rgb(232,228,230)" stroke="rgb(232,228,230)" stroke-width="1" opacity="1" d="M 550.5 589 L 553 589.5 L 550.5 590 L 550.5 589 Z " /><path fill="rgb(232,228,230)" stroke="rgb(232,228,230)" stroke-width="1" opacity="1" d="M 19.5 610 L 19.5 611 L 19.5 610 Z " /><path fill="rgb(232,228,230)" stroke="rgb(232,228,230)" stroke-width="1" opacity="1" d="M 492.5 610 L 492.5 611 L 492.5 610 Z " /><path fill="rgb(232,228,230)" stroke="rgb(232,228,230)" stroke-width="1" opacity="1" d="M 1004.5 610 L 1004.5 611 L 1004.5 610 Z " /><path fill="rgb(232,228,230)" stroke="rgb(232,228,230)" stroke-width="1" opacity="1" d="M 137.5 611 L 138 648.5 L 136.5 650 L 20.5 650 L 20.5 649 L 136.5 649 L 137 648.5 L 137.5 611 Z " /><path fill="rgb(232,228,230)" stroke="rgb(232,228,230)" stroke-width="1" opacity="1" d="M 177.5 611 L 178 649 L 216 649.5 L 178.5 650 L 177 648.5 L 177.5 611 Z " /><path fill="rgb(232,228,230)" stroke="rgb(232,228,230)" stroke-width="1" opacity="1" d="M 374.5 611 L 375 688.5 L 374 688.5 L 374.5 611 Z " /><path fill="rgb(232,228,230)" stroke="rgb(232,228,230)" stroke-width="1" opacity="1" d="M 689.5 611 L 690 649 L 768 649.5 L 690.5 650 L 689 648.5 L 689.5 611 Z " /><path fill="rgb(232,228,230)" stroke="rgb(232,228,230)" stroke-width="1" opacity="1" d="M 886.5 611 L 887 649.5 L 886 649.5 L 886.5 611 Z " /><path fill="rgb(232,228,230)" stroke="rgb(232,228,230)" stroke-width="1" opacity="1" d="M 256.5 649 L 295 649.5 L 256.5 650 L 256.5 649 Z " /><path fill="rgb(232,228,230)" stroke="rgb(232,228,230)" stroke-width="1" opacity="1" d="M 453.5 649 L 532 649.5 L 453 650 L 453 689 L 491.5 689 L 491.5 690 L 453.5 690 L 452 688.5 L 452 650.5 L 453.5 649 Z " /><path fill="rgb(232,228,230)" stroke="rgb(232,228,230)" stroke-width="1" opacity="1" d="M 925.5 649 L 965 649.5 L 925.5 650 L 925.5 649 Z " /><path fill="rgb(232,228,230)" stroke="rgb(232,228,230)" stroke-width="1" opacity="1" d="M 649.5 650 L 650 806.5 L 649 806.5 L 649.5 650 Z " /><path fill="rgb(232,228,230)" stroke="rgb(232,228,230)" stroke-width="1" opacity="1" d="M 19.5 689 L 333.5 689 L 335 690.5 L 334.5 729 L 334 690 L 19.5 690 L 19.5 689 Z " /><path fill="rgb(232,228,230)" stroke="rgb(232,228,230)" stroke-width="1" opacity="1" d="M 690.5 689 L 807 689.5 L 690 690 L 689.5 807 L 689 690.5 L 690.5 689 Z " /><path fill="rgb(232,228,230)" stroke="rgb(232,228,230)" stroke-width="1" opacity="1" d="M 925.5 689 L 963.5 689 L 965 690.5 L 965 845.5 L 963.5 847 L 886 846.5 L 964 846 L 964 690.5 L 963.5 690 L 925.5 690 L 925.5 689 Z " /><path fill="rgb(232,228,230)" stroke="rgb(232,228,230)" stroke-width="1" opacity="1" d="M 19.5 728 L 19.5 729 L 19.5 728 Z " /><path fill="rgb(232,228,230)" stroke="rgb(232,228,230)" stroke-width="1" opacity="1" d="M 295.5 728 L 295.5 729 L 295.5 728 Z " /><path fill="rgb(232,228,230)" stroke="rgb(232,228,230)" stroke-width="1" opacity="1" d="M 728.5 728 L 728.5 729 L 728.5 728 Z " /><path fill="rgb(232,228,230)" stroke="rgb(232,228,230)" stroke-width="1" opacity="1" d="M 59.5 768 L 60 964 L 256 964.5 L 59 965 L 59.5 768 Z " /><path fill="rgb(232,228,230)" stroke="rgb(232,228,230)" stroke-width="1" opacity="1" d="M 334.5 768 L 335 807.5 L 334 807.5 L 334.5 768 Z " /><path fill="rgb(232,228,230)" stroke="rgb(232,228,230)" stroke-width="1" opacity="1" d="M 452.5 768 L 453 806.5 L 452 806.5 L 452.5 768 Z " /><path fill="rgb(232,228,230)" stroke="rgb(232,228,230)" stroke-width="1" opacity="1" d="M 413.5 807 L 413.5 808 L 413.5 807 Z " /><path fill="rgb(232,228,230)" stroke="rgb(232,228,230)" stroke-width="1" opacity="1" d="M 413.5 846 L 453 846.5 L 413.5 847 L 413.5 846 Z " /><path fill="rgb(232,228,230)" stroke="rgb(232,228,230)" stroke-width="1" opacity="1" d="M 571.5 847 L 572 885.5 L 570.5 887 L 532.5 887 L 532.5 886 L 571 886 L 571.5 847 Z " /><path fill="rgb(232,228,230)" stroke="rgb(232,228,230)" stroke-width="1" opacity="1" d="M 334.5 886 L 335 1004.5 L 334 1004.5 L 334.5 886 Z " /><path fill="rgb(232,228,230)" stroke="rgb(232,228,230)" stroke-width="1" opacity="1" d="M 414.5 886 L 453 886 L 453 924.5 L 452 924.5 L 452 887 L 414.5 887 L 414.5 886 Z " /><path fill="rgb(232,228,230)" stroke="rgb(232,228,230)" stroke-width="1" opacity="1" d="M 887.5 886 L 925 886.5 L 887 887 L 886.5 926 L 886 887.5 L 887.5 886 Z " /><path fill="rgb(232,228,230)" stroke="rgb(232,228,230)" stroke-width="1" opacity="1" d="M 492.5 925 L 492.5 926 L 492.5 925 Z " /><path fill="rgb(232,228,230)" stroke="rgb(232,228,230)" stroke-width="1" opacity="1" d="M 531.5 925 L 531.5 926 L 531.5 925 Z " /><path fill="rgb(232,228,230)" stroke="rgb(232,228,230)" stroke-width="1" opacity="1" d="M 1004.5 925 L 1004.5 926 L 1004.5 925 Z " /><path fill="rgb(232,228,230)" stroke="rgb(232,228,230)" stroke-width="1" opacity="1" d="M 374.5 926 L 375 1003.5 L 374 1003.5 L 374.5 926 Z " /><path fill="rgb(232,228,230)" stroke="rgb(232,228,230)" stroke-width="1" opacity="1" d="M 571.5 926 L 572 1003.5 L 571 1003.5 L 571.5 926 Z " /><path fill="rgb(232,228,230)" stroke="rgb(232,228,230)" stroke-width="1" opacity="1" d="M 689.5 926 L 690 1004.5 L 689 1004.5 L 689.5 926 Z " /><path fill="rgb(232,228,230)" stroke="rgb(232,228,230)" stroke-width="1" opacity="1" d="M 453.5 964 L 531 964.5 L 453.5 965 L 453.5 964 Z " /><path fill="rgb(232,228,230)" stroke="rgb(232,228,230)" stroke-width="1" opacity="1" d="M 847.5 964 L 885.5 964 L 887 965.5 L 886.5 1004 L 886 965 L 847 965 L 847 1004.5 L 846 1004.5 L 846 965.5 L 847.5 964 Z " /><path fill="rgb(232,228,230)" stroke="rgb(232,228,230)" stroke-width="1" opacity="1" d="M 965.5 964 L 1004 964.5 L 965 965 L 964.5 1004 L 964 965.5 L 965.5 964 Z " /><path fill="rgb(232,228,230)" stroke="rgb(232,228,230)" stroke-width="1" opacity="1" d="M 19.5 1004 L 19.5 1005 L 19.5 1004 Z " /><path fill="rgb(232,228,230)" stroke="rgb(232,228,230)" stroke-width="1" opacity="1" d="M 295.5 1004 L 295.5 1005 L 295.5 1004 Z " /><path fill="rgb(232,228,230)" stroke="rgb(232,228,230)" stroke-width="1" opacity="1" d="M 413.5 1004 L 413.5 1005 L 413.5 1004 Z " /><path fill="rgb(232,228,230)" stroke="rgb(232,228,230)" stroke-width="1" opacity="1" d="M 610.5 1004 L 610.5 1005 L 610.5 1004 Z " /><path fill="rgb(232,228,230)" stroke="rgb(232,228,230)" stroke-width="1" opacity="1" d="M 728.5 1004 L 728.5 1005 L 728.5 1004 Z " /><path fill="rgb(232,228,230)" stroke="rgb(232,228,230)" stroke-width="1" opacity="1" d="M 1004.5 1004 L 1004.5 1005 L 1004.5 1004 Z " /><path fill="rgb(255,254,255)" stroke="rgb(255,254,255)" stroke-width="1" opacity="1" d="M 452.5 98 L 452.5 99 L 452.5 98 Z " /><path fill="rgb(255,254,255)" stroke="rgb(255,254,255)" stroke-width="1" opacity="1" d="M 452.5 137 L 452.5 138 L 452.5 137 Z " /><path fill="rgb(255,254,255)" stroke="rgb(255,254,255)" stroke-width="1" opacity="1" d="M 571.5 216 L 571.5 217 L 571.5 216 Z " /><path fill="rgb(255,254,255)" stroke="rgb(255,254,255)" stroke-width="1" opacity="1" d="M 452.5 334 L 452.5 335 L 452.5 334 Z " /><path fill="rgb(255,254,255)" stroke="rgb(255,254,255)" stroke-width="1" opacity="1" d="M 19.5 374 L 19.5 375 L 19.5 374 Z " /><path fill="rgb(255,254,255)" stroke="rgb(255,254,255)" stroke-width="1" opacity="1" d="M 452.5 374 L 452.5 375 L 452.5 374 Z " /><path fill="rgb(255,254,255)" stroke="rgb(255,254,255)" stroke-width="1" opacity="1" d="M 465.5 435 L 468 435.5 L 461 438 Q 459.69 434.67 464.5 436 L 465.5 435 Z " /><path fill="rgb(255,254,255)" stroke="rgb(255,254,255)" stroke-width="1" opacity="1" d="M 485.5 435 L 488 435.5 L 485.5 436 L 485.5 435 Z " /><path fill="rgb(255,254,255)" stroke="rgb(255,254,255)" stroke-width="1" opacity="1" d="M 489.5 436 Q 492.83 434.88 492 437.5 L 490.5 437 Q 488.13 436.87 489.5 436 Z " /><path fill="rgb(255,254,255)" stroke="rgb(255,254,255)" stroke-width="1" opacity="1" d="M 458.5 438 L 460 438.5 L 458.5 439 L 458.5 438 Z " /><path fill="rgb(255,254,255)" stroke="rgb(255,254,255)" stroke-width="1" opacity="1" d="M 456.5 439 Q 458 440 455.5 441 L 453.5 442 Q 452 441 454.5 440 L 456.5 439 Z " /><path fill="rgb(255,254,255)" stroke="rgb(255,254,255)" stroke-width="1" opacity="1" d="M 535.5 466 L 538 466.5 L 535.5 467 L 535.5 466 Z " /><path fill="rgb(255,254,255)" stroke="rgb(255,254,255)" stroke-width="1" opacity="1" d="M 541.5 467 L 547 468 L 546.5 470 L 543.5 468 L 541.5 468 L 541.5 467 Z " /><path fill="rgb(255,254,255)" stroke="rgb(255,254,255)" stroke-width="1" opacity="1" d="M 549.5 470 L 549.5 471 L 549.5 470 Z " /><path fill="rgb(255,254,255)" stroke="rgb(255,254,255)" stroke-width="1" opacity="1" d="M 551.5 471 L 559 476.5 L 558.5 477 L 556.5 475 Q 551.92 473.83 551.5 471 Z " /><path fill="rgb(255,254,255)" stroke="rgb(255,254,255)" stroke-width="1" opacity="1" d="M 560.5 478 Q 563.5 479.12 563 482 L 566 483.5 L 566 485.5 Q 570.25 488.25 571 494.5 L 570 494.5 L 569 490.5 L 560 478.5 L 560.5 478 Z " /><path fill="rgb(255,254,255)" stroke="rgb(255,254,255)" stroke-width="1" opacity="1" d="M 532.5 487 L 534 487.5 L 532.5 488 L 532.5 487 Z " /><path fill="rgb(255,254,255)" stroke="rgb(255,254,255)" stroke-width="1" opacity="1" d="M 535.5 488 L 537 488.5 L 535.5 489 L 535.5 488 Z " /><path fill="rgb(255,254,255)" stroke="rgb(255,254,255)" stroke-width="1" opacity="1" d="M 538.5 489 L 540 489.5 L 538.5 490 L 538.5 489 Z " /><path fill="rgb(255,254,255)" stroke="rgb(255,254,255)" stroke-width="1" opacity="1" d="M 532.5 490 L 534 491.5 L 535 495.5 L 534 495.5 L 532 491.5 L 532.5 490 Z " /><path fill="rgb(255,254,255)" stroke="rgb(255,254,255)" stroke-width="1" opacity="1" d="M 541.5 490 L 548 496.5 L 547.5 497 L 545 495.5 L 542.5 492 Q 539.71 492.67 541.5 490 Z " /><path fill="rgb(255,254,255)" stroke="rgb(255,254,255)" stroke-width="1" opacity="1" d="M 886.5 492 L 886.5 493 L 886.5 492 Z " /><path fill="rgb(255,254,255)" stroke="rgb(255,254,255)" stroke-width="1" opacity="1" d="M 964.5 492 L 964.5 493 L 964.5 492 Z " /><path fill="rgb(255,254,255)" stroke="rgb(255,254,255)" stroke-width="1" opacity="1" d="M 458.5 493 L 458.5 494 L 458.5 493 Z " /><path fill="rgb(255,254,255)" stroke="rgb(255,254,255)" stroke-width="1" opacity="1" d="M 487 493 L 489 493.5 L 486.5 498 L 486 496.5 Q 487.75 495.58 487 493 Z " /><path fill="rgb(255,254,255)" stroke="rgb(255,254,255)" stroke-width="1" opacity="1" d="M 512.5 493 L 515 493.5 Q 512.75 494.75 514 499.5 L 517 504.5 Q 516.25 507.75 518 508.5 L 518 521.5 L 513.5 529 L 513 527.5 L 515 525.5 L 517 520.5 L 517 509.5 L 513 499.5 L 512.5 495 L 510 497.5 L 507 504.5 L 507 515.5 L 510 522.5 Q 509 524 508 521.5 L 506 515.5 L 506 504.5 Q 507.75 503.75 507 500.5 L 512.5 493 Z " /><path fill="rgb(255,254,255)" stroke="rgb(255,254,255)" stroke-width="1" opacity="1" d="M 459.5 495 L 459.5 496 L 459.5 495 Z " /><path fill="rgb(255,254,255)" stroke="rgb(255,254,255)" stroke-width="1" opacity="1" d="M 460.5 497 L 463 500.5 L 464 504.5 L 466 506.5 L 467 510.5 Q 466 512 465 509.5 L 465 507.5 L 460 498.5 L 460.5 497 Z " /><path fill="rgb(255,254,255)" stroke="rgb(255,254,255)" stroke-width="1" opacity="1" d="M 535.5 497 L 538 501.5 L 538 505.5 L 537 505.5 L 536 499.5 L 535 498.5 L 535.5 497 Z " /><path fill="rgb(255,254,255)" stroke="rgb(255,254,255)" stroke-width="1" opacity="1" d="M 548.5 498 L 548.5 499 L 548.5 498 Z " /><path fill="rgb(255,254,255)" stroke="rgb(255,254,255)" stroke-width="1" opacity="1" d="M 549.5 500 L 552 503.5 Q 551 505 550 502.5 L 549.5 500 Z " /><path fill="rgb(255,254,255)" stroke="rgb(255,254,255)" stroke-width="1" opacity="1" d="M 485.5 501 L 486 503.5 L 485 503.5 L 485.5 501 Z " /><path fill="rgb(255,254,255)" stroke="rgb(255,254,255)" stroke-width="1" opacity="1" d="M 552.5 505 L 552.5 506 L 552.5 505 Z " /><path fill="rgb(255,254,255)" stroke="rgb(255,254,255)" stroke-width="1" opacity="1" d="M 553.5 507 L 556 510.5 L 554 511 L 553.5 507 Z " /><path fill="rgb(255,254,255)" stroke="rgb(255,254,255)" stroke-width="1" opacity="1" d="M 538.5 509 L 539 519.5 L 538 519.5 L 538.5 509 Z " /><path fill="rgb(255,254,255)" stroke="rgb(255,254,255)" stroke-width="1" opacity="1" d="M 467.5 512 L 467.5 513 L 467.5 512 Z " /><path fill="rgb(255,254,255)" stroke="rgb(255,254,255)" stroke-width="1" opacity="1" d="M 556.5 512 L 556.5 513 L 556.5 512 Z " /><path fill="rgb(255,254,255)" stroke="rgb(255,254,255)" stroke-width="1" opacity="1" d="M 468.5 514 L 472 520.5 L 471 520.5 L 469 517.5 L 468.5 514 Z " /><path fill="rgb(255,254,255)" stroke="rgb(255,254,255)" stroke-width="1" opacity="1" d="M 557.5 514 L 560 518.5 L 558 519 L 557.5 514 Z " /><path fill="rgb(255,254,255)" stroke="rgb(255,254,255)" stroke-width="1" opacity="1" d="M 485.5 517 L 486 518.5 L 485 518.5 L 485.5 517 Z " /><path fill="rgb(255,254,255)" stroke="rgb(255,254,255)" stroke-width="1" opacity="1" d="M 472.5 522 Q 474.75 521.25 474 523.5 Q 476 529 480.5 532 L 484.5 535 L 489.5 536 L 491 537.5 L 488.5 538 L 479.5 533 L 476 529.5 L 472 522.5 L 472.5 522 Z " /><path fill="rgb(255,254,255)" stroke="rgb(255,254,255)" stroke-width="1" opacity="1" d="M 486.5 522 L 487 523.5 L 486 523.5 L 486.5 522 Z " /><path fill="rgb(255,254,255)" stroke="rgb(255,254,255)" stroke-width="1" opacity="1" d="M 537.5 523 L 538 527.5 L 535.5 532 L 535 530.5 L 537.5 523 Z " /><path fill="rgb(255,254,255)" stroke="rgb(255,254,255)" stroke-width="1" opacity="1" d="M 561.5 523 L 561.5 524 L 561.5 523 Z " /><path fill="rgb(255,254,255)" stroke="rgb(255,254,255)" stroke-width="1" opacity="1" d="M 510.5 524 L 511 525.5 L 510 525.5 L 510.5 524 Z " /><path fill="rgb(255,254,255)" stroke="rgb(255,254,255)" stroke-width="1" opacity="1" d="M 487.5 525 L 489 527.5 L 487 528 L 487.5 525 Z " /><path fill="rgb(255,254,255)" stroke="rgb(255,254,255)" stroke-width="1" opacity="1" d="M 562.5 525 L 564 527.5 L 562 528 L 562.5 525 Z " /><path fill="rgb(255,254,255)" stroke="rgb(255,254,255)" stroke-width="1" opacity="1" d="M 453.5 529 L 458 538.5 L 466.5 548 L 480.5 556 L 489 557.5 L 483.5 558 L 482.5 557 L 476.5 556 Q 473.87 552.5 469 552 Q 470.13 549.33 467.5 550 L 460 543.5 L 454 534.5 L 453 531.5 L 453.5 529 Z " /><path fill="rgb(255,254,255)" stroke="rgb(255,254,255)" stroke-width="1" opacity="1" d="M 510.5 529 L 513 530.5 L 507.5 535 L 501.5 538 L 499.5 538 Q 498 537 500.5 536 L 502.5 536 L 510 530.5 L 510.5 529 Z " /><path fill="rgb(255,254,255)" stroke="rgb(255,254,255)" stroke-width="1" opacity="1" d="M 489.5 530 Q 490.65 534.35 494 536.5 L 492.5 536 Q 490.25 536.75 491 534.5 L 489 531.5 L 489.5 530 Z " /><path fill="rgb(255,254,255)" stroke="rgb(255,254,255)" stroke-width="1" opacity="1" d="M 564.5 530 L 564.5 531 L 564.5 530 Z " /><path fill="rgb(255,254,255)" stroke="rgb(255,254,255)" stroke-width="1" opacity="1" d="M 534.5 533 L 534.5 534 L 534.5 533 Z " /><path fill="rgb(255,254,255)" stroke="rgb(255,254,255)" stroke-width="1" opacity="1" d="M 565.5 533 L 565.5 534 L 565.5 533 Z " /><path fill="rgb(255,254,255)" stroke="rgb(255,254,255)" stroke-width="1" opacity="1" d="M 533.5 535 L 534 536.5 L 530 541.5 L 529 545 L 526 546.5 L 524.5 549 L 521 550 L 519.5 553 L 516.5 555 Q 513.5 553.5 516.5 552 Q 520.75 551.25 522.5 548 L 524 548 Q 522.87 545.33 525.5 546 L 533.5 535 Z " /><path fill="rgb(255,254,255)" stroke="rgb(255,254,255)" stroke-width="1" opacity="1" d="M 566.5 535 L 568 537.5 L 566 538 L 566.5 535 Z " /><path fill="rgb(255,254,255)" stroke="rgb(255,254,255)" stroke-width="1" opacity="1" d="M 568.5 540 L 568.5 541 L 568.5 540 Z " /><path fill="rgb(255,254,255)" stroke="rgb(255,254,255)" stroke-width="1" opacity="1" d="M 522.5 552 L 525 553 L 525 555.5 L 527 558.5 L 526 558.5 L 522 552.5 L 522.5 552 Z " /><path fill="rgb(255,254,255)" stroke="rgb(255,254,255)" stroke-width="1" opacity="1" d="M 568.5 552 L 568.5 553 L 568.5 552 Z " /><path fill="rgb(255,254,255)" stroke="rgb(255,254,255)" stroke-width="1" opacity="1" d="M 513.5 554 L 514 556 L 506.5 559 L 502 557.5 L 506.5 557 L 513.5 554 Z " /><path fill="rgb(255,254,255)" stroke="rgb(255,254,255)" stroke-width="1" opacity="1" d="M 566.5 556 L 567 557.5 L 566 557.5 L 566.5 556 Z " /><path fill="rgb(255,254,255)" stroke="rgb(255,254,255)" stroke-width="1" opacity="1" d="M 491.5 558 L 500 558.5 Q 498.5 561.5 492.5 560 Q 490 559 491.5 558 Z " /><path fill="rgb(255,254,255)" stroke="rgb(255,254,255)" stroke-width="1" opacity="1" d="M 528.5 560 Q 531 561 529.5 562 Q 527 561 528.5 560 Z " /><path fill="rgb(255,254,255)" stroke="rgb(255,254,255)" stroke-width="1" opacity="1" d="M 564.5 560 L 565 560.5 L 558.5 567 L 558 565 Q 560.88 565.5 562 562.5 Q 561.25 560.25 563.5 561 L 564.5 560 Z " /><path fill="rgb(255,254,255)" stroke="rgb(255,254,255)" stroke-width="1" opacity="1" d="M 505.5 564 L 509 569.5 L 507 570 L 505 565.5 L 505.5 564 Z " /><path fill="rgb(255,254,255)" stroke="rgb(255,254,255)" stroke-width="1" opacity="1" d="M 532.5 564 L 535 565 L 534.5 567 L 532 564.5 L 532.5 564 Z " /><path fill="rgb(255,254,255)" stroke="rgb(255,254,255)" stroke-width="1" opacity="1" d="M 536.5 567 L 538 567.5 L 536.5 568 L 536.5 567 Z " /><path fill="rgb(255,254,255)" stroke="rgb(255,254,255)" stroke-width="1" opacity="1" d="M 539.5 568 L 541 568.5 L 539.5 569 L 539.5 568 Z " /><path fill="rgb(255,254,255)" stroke="rgb(255,254,255)" stroke-width="1" opacity="1" d="M 552.5 568 L 552.5 569 L 552.5 568 Z " /><path fill="rgb(255,254,255)" stroke="rgb(255,254,255)" stroke-width="1" opacity="1" d="M 546.5 569 L 546.5 570 L 546.5 569 Z " /><path fill="rgb(255,254,255)" stroke="rgb(255,254,255)" stroke-width="1" opacity="1" d="M 509.5 571 L 513 574.5 L 512.5 575 Q 510.25 575.75 511 573.5 L 509 571.5 L 509.5 571 Z " /><path fill="rgb(255,254,255)" stroke="rgb(255,254,255)" stroke-width="1" opacity="1" d="M 807.5 571 L 807.5 572 L 807.5 571 Z " /><path fill="rgb(255,254,255)" stroke="rgb(255,254,255)" stroke-width="1" opacity="1" d="M 515.5 577 L 519 580.5 L 518.5 581 L 515 578.5 L 515.5 577 Z " /><path fill="rgb(255,254,255)" stroke="rgb(255,254,255)" stroke-width="1" opacity="1" d="M 520.5 581 L 523 583.5 L 522.5 584 Q 520.25 584.75 521 582.5 L 520.5 581 Z " /><path fill="rgb(255,254,255)" stroke="rgb(255,254,255)" stroke-width="1" opacity="1" d="M 570.5 582 L 571 583.5 L 568.5 585 L 568.5 584 L 570 584 L 570.5 582 Z " /><path fill="rgb(255,254,255)" stroke="rgb(255,254,255)" stroke-width="1" opacity="1" d="M 524.5 584 L 524.5 585 L 524.5 584 Z " /><path fill="rgb(255,254,255)" stroke="rgb(255,254,255)" stroke-width="1" opacity="1" d="M 526.5 585 L 526.5 586 L 526.5 585 Z " /><path fill="rgb(255,254,255)" stroke="rgb(255,254,255)" stroke-width="1" opacity="1" d="M 566.5 585 L 566.5 586 L 566.5 585 Z " /><path fill="rgb(255,254,255)" stroke="rgb(255,254,255)" stroke-width="1" opacity="1" d="M 529.5 586 Q 532 587 530.5 588 Q 527.71 588.67 529.5 586 Z " /><path fill="rgb(255,254,255)" stroke="rgb(255,254,255)" stroke-width="1" opacity="1" d="M 563.5 586 L 564 588 L 562 587.5 L 563.5 586 Z " /><path fill="rgb(255,254,255)" stroke="rgb(255,254,255)" stroke-width="1" opacity="1" d="M 533.5 588 L 533.5 589 L 533.5 588 Z " /><path fill="rgb(255,254,255)" stroke="rgb(255,254,255)" stroke-width="1" opacity="1" d="M 559.5 588 L 559.5 589 L 559.5 588 Z " /><path fill="rgb(255,254,255)" stroke="rgb(255,254,255)" stroke-width="1" opacity="1" d="M 538.5 589 L 538.5 590 L 538.5 589 Z " /><path fill="rgb(255,254,255)" stroke="rgb(255,254,255)" stroke-width="1" opacity="1" d="M 553.5 589 L 553.5 590 L 553.5 589 Z " /><path fill="rgb(255,254,255)" stroke="rgb(255,254,255)" stroke-width="1" opacity="1" d="M 964.5 610 L 964.5 611 L 964.5 610 Z " /><path fill="rgb(255,254,255)" stroke="rgb(255,254,255)" stroke-width="1" opacity="1" d="M 19.5 649 L 19.5 650 L 19.5 649 Z " /><path fill="rgb(255,254,255)" stroke="rgb(255,254,255)" stroke-width="1" opacity="1" d="M 452.5 807 L 452.5 808 L 452.5 807 Z " /><path fill="rgb(255,254,255)" stroke="rgb(255,254,255)" stroke-width="1" opacity="1" d="M 531.5 886 L 531.5 887 L 531.5 886 Z " /><path fill="rgb(255,254,255)" stroke="rgb(255,254,255)" stroke-width="1" opacity="1" d="M 571.5 886 L 571.5 887 L 571.5 886 Z " /><path fill="rgb(255,254,255)" stroke="rgb(255,254,255)" stroke-width="1" opacity="1" d="M 571.5 925 L 571.5 926 L 571.5 925 Z " /><path fill="rgb(255,254,255)" stroke="rgb(255,254,255)" stroke-width="1" opacity="1" d="M 886.5 964 L 886.5 965 L 886.5 964 Z " /><path fill="rgb(255,254,255)" stroke="rgb(255,254,255)" stroke-width="1" opacity="1" d="M 964.5 964 L 964.5 965 L 964.5 964 Z " /><path fill="rgb(255,254,255)" stroke="rgb(255,254,255)" stroke-width="1" opacity="1" d="M 1004.5 964 L 1004.5 965 L 1004.5 964 Z " /><path fill="rgb(255,254,255)" stroke="rgb(255,254,255)" stroke-width="1" opacity="1" d="M 374.5 1004 L 374.5 1005 L 374.5 1004 Z " /><path fill="rgb(255,254,255)" stroke="rgb(255,254,255)" stroke-width="1" opacity="1" d="M 571.5 1004 L 571.5 1005 L 571.5 1004 Z " /><path fill="rgb(255,254,255)" stroke="rgb(255,254,255)" stroke-width="1" opacity="1" d="M 886.5 1004 L 886.5 1005 L 886.5 1004 Z " /><path fill="rgb(255,254,255)" stroke="rgb(255,254,255)" stroke-width="1" opacity="1" d="M 964.5 1004 L 964.5 1005 L 964.5 1004 Z " /><path fill="rgb(255,255,255)" stroke="rgb(255,255,255)" stroke-width="1" opacity="1" d="M 0 0 L 1024 0 L 1024 1024 L 0 1024 L 0 0 Z M 19 19 L 19 296 L 296 296 L 296 19 L 19 19 Z M 334 19 L 334 99 L 374 99 L 374 138 L 414 138 L 414 98 L 375 98 L 375 60 L 452 60 L 452 61 L 452 99 L 493 99 L 493 19 L 334 19 Z M 728 19 L 728 296 L 1005 296 L 1005 19 L 728 19 Z M 649 59 L 649 99 L 690 99 L 690 59 L 649 59 Z M 531 98 L 531 137 L 452 137 L 452 216 L 374 216 L 374 256 L 334 256 L 334 296 L 374 296 L 374 374 L 296 374 L 296 334 L 256 334 L 256 374 L 138 374 L 138 335 L 138 334 L 19 334 L 19 375 L 59 375 L 59 414 L 177 414 L 177 492 L 138 492 L 137 493 L 137 571 L 99 571 L 99 492 L 19 492 L 19 532 L 59 532 L 59 571 L 19 571 L 19 611 L 137 611 L 137 649 L 137 649 L 19 649 L 19 690 L 20 690 L 334 690 L 334 691 L 334 729 L 453 729 L 453 729 L 453 690 L 492 690 L 492 768 L 452 768 L 452 808 L 531 808 L 531 887 L 572 887 L 572 847 L 610 847 L 610 848 L 610 1005 L 690 1005 L 690 926 L 728 926 L 728 1005 L 768 1005 L 768 965 L 846 965 L 846 1005 L 887 1005 L 887 964 L 847 964 L 847 926 L 887 926 L 887 887 L 925 887 L 925 926 L 926 926 L 1005 926 L 1005 886 L 965 886 L 965 847 L 1005 847 L 1005 689 L 965 689 L 965 649 L 925 649 L 925 690 L 964 690 L 964 846 L 886 846 L 886 886 L 847 886 L 847 651 L 848 650 L 887 650 L 887 611 L 926 611 L 926 572 L 964 572 L 964 611 L 1005 611 L 1005 492 L 964 492 L 964 531 L 925 531 L 925 571 L 846 571 L 846 610 L 768 610 L 768 649 L 690 649 L 690 611 L 729 611 L 729 572 L 808 572 L 808 493 L 887 493 L 887 453 L 926 453 L 926 414 L 964 414 L 964 453 L 1005 453 L 1005 334 L 925 334 L 925 413 L 887 413 L 887 374 L 847 374 L 847 334 L 690 334 L 690 177 L 650 177 L 650 137 L 611 137 L 611 98 L 531 98 Z M 19 728 L 19 1005 L 296 1005 L 296 728 L 19 728 Z M 334 768 L 334 808 L 414 808 L 414 768 L 334 768 Z M 413 846 L 413 886 L 334 886 L 334 1005 L 375 1005 L 375 926 L 413 926 L 413 1005 L 572 1005 L 572 925 L 531 925 L 531 964 L 531 964 L 453 964 L 453 926 L 493 926 L 493 886 L 453 886 L 453 846 L 413 846 Z M 964 964 L 964 1005 L 1005 1005 L 1005 964 L 964 964 Z " /><path fill="rgb(255,255,255)" stroke="rgb(255,255,255)" stroke-width="1" opacity="1" d="M 60 60 L 256 60 L 256 256 L 60 256 L 60 60 Z M 98 98 L 98 217 L 217 217 L 217 98 L 98 98 Z " /><path fill="rgb(255,255,255)" stroke="rgb(255,255,255)" stroke-width="1" opacity="1" d="M 768 60 L 964 60 L 964 256 L 768 256 L 768 60 Z M 807 98 L 807 217 L 926 217 L 926 98 L 807 98 Z " /><path fill="rgb(255,255,255)" stroke="rgb(255,255,255)" stroke-width="1" opacity="1" d="M 532 138 L 571 138 L 571 177 L 532 177 L 532 138 Z " /><path fill="rgb(255,255,255)" stroke="rgb(255,255,255)" stroke-width="1" opacity="1" d="M 572 178 L 649 178 L 649 334 L 610 334 L 610 413 L 572 413 L 572 374 L 532 374 L 532 334 L 452 334 L 452 375 L 492 375 L 492 436 Q 488.63 437 487.5 435 L 465.5 435 Q 464.37 437 461 436 Q 462.25 439 458.5 438 L 453.5 441 L 453 413 L 375 413 L 375 375 L 414 375 L 414 296 L 452.5 296 L 453 295.5 L 453 217 L 492 217 L 492 296 L 532 296 L 532 217 L 572 217 L 572 178 Z M 571 256 L 571 296 L 611 296 L 611 256 L 571 256 Z " /><path fill="rgb(255,255,255)" stroke="rgb(255,255,255)" stroke-width="1" opacity="1" d="M 375 256 L 413 256 L 413 295 L 375 295 L 375 256 Z " /><path fill="rgb(255,255,255)" stroke="rgb(255,255,255)" stroke-width="1" opacity="1" d="M 256 375 L 295 375 L 295 413 L 256 413 L 256 375 Z " /><path fill="rgb(255,255,255)" stroke="rgb(255,255,255)" stroke-width="1" opacity="1" d="M 690 375 L 728 375 L 728 413 L 690 413 L 690 375 Z " /><path fill="rgb(255,255,255)" stroke="rgb(255,255,255)" stroke-width="1" opacity="1" d="M 808 375 L 846 375 L 846 413 L 808 413 L 808 375 Z " /><path fill="rgb(255,255,255)" stroke="rgb(255,255,255)" stroke-width="1" opacity="1" d="M 217 414 L 256 414 L 256 453 L 295 453 L 295 492 L 217 492 L 217 414 Z " /><path fill="rgb(255,255,255)" stroke="rgb(255,255,255)" stroke-width="1" opacity="1" d="M 296 414 L 374 414 L 374 453 L 413 453 L 413 492 L 335 492 L 335 452 L 296 452 L 296 414 Z " /><path fill="rgb(255,255,255)" stroke="rgb(255,255,255)" stroke-width="1" opacity="1" d="M 650 414 L 689 414 L 689 452 L 650 452 L 650 414 Z " /><path fill="rgb(255,255,255)" stroke="rgb(255,255,255)" stroke-width="1" opacity="1" d="M 729 414 L 768 414 L 768 492 L 729 492 L 729 414 Z " /><path fill="rgb(255,255,255)" stroke="rgb(255,255,255)" stroke-width="1" opacity="1" d="M 532 453 L 649 453 L 649 531 L 611 531 L 611 492 L 570.5 492 L 570 490.5 L 564.5 482 Q 562.25 482.75 563 480.5 Q 561.87 477.5 559 478 Q 559.5 475.13 556.5 474 L 552.5 471 L 547 470 Q 548.25 467 544.5 468 L 543.5 467 L 532 466 L 532 453 Z " /><path fill="rgb(255,255,255)" stroke="rgb(255,255,255)" stroke-width="1" opacity="1" d="M 532 488 L 541 490 Q 539.88 492.67 542.5 492 L 546.5 497 Q 548.75 496.25 548 498.5 L 554 508.5 L 554 511 Q 556.67 509.88 556 512.5 L 558 516.5 L 558 519 Q 560.67 517.88 560 520.5 L 562 524.5 L 562 528 Q 565 526.75 564 530.5 L 566 534.5 L 566 538 Q 569 536.75 568 540.5 L 569 541.5 L 569 551.5 Q 567 552.62 568 556 Q 565 554.75 566 558.5 Q 564.88 561.5 562 561 Q 562.5 563.88 559.5 565 L 558 565 Q 559.13 567.67 556.5 567 L 551.5 569 L 541.5 569 L 537.5 567 L 535 567 Q 536.13 564.33 533.5 565 L 530 562.5 L 528.5 560 Q 525.87 560.83 527 557.5 Q 524.25 556.42 525 553 L 521 552 Q 519.88 549.33 522.5 550 L 526 547.5 L 527.5 545 Q 529.75 545.75 529 543.5 L 533 538.5 L 534 534.5 L 538 527.5 L 538 520.5 L 539 519.5 L 539 509.5 L 538 508.5 L 538 501.5 L 537 498.5 L 535 496.5 L 534 491.5 Q 531.5 490.5 532 488 Z " /><path fill="rgb(255,255,255)" stroke="rgb(255,255,255)" stroke-width="1" opacity="1" d="M 178 493 L 216 493 L 216 571 L 178 571 L 178 493 Z " /><path fill="rgb(255,255,255)" stroke="rgb(255,255,255)" stroke-width="1" opacity="1" d="M 296 493 L 334 493 L 334 531 L 296 531 L 296 493 Z " /><path fill="rgb(255,255,255)" stroke="rgb(255,255,255)" stroke-width="1" opacity="1" d="M 459 493 L 486.5 493 Q 487.25 492.75 487 495.5 L 485 501.5 L 485 518.5 L 486 519.5 L 486 523.5 Q 488 524.62 487 528 Q 490.33 526.69 489 531.5 L 491 536 L 493.5 537 L 499 537.5 L 491.5 538 L 489.5 536 L 484.5 535 L 476 527.5 L 474 522 Q 471 523.25 472 519.5 L 467 511.5 L 466 506.5 L 464 504.5 L 463 500.5 Q 459.63 497.52 459 493 Z " /><path fill="rgb(255,255,255)" stroke="rgb(255,255,255)" stroke-width="1" opacity="1" d="M 690 493 L 728 493 L 728 571 L 690 571 L 690 493 Z " /><path fill="rgb(255,255,255)" stroke="rgb(255,255,255)" stroke-width="1" opacity="1" d="M 512.5 495 L 513 499.5 L 517 509.5 L 517 520.5 L 515 525.5 L 513 527.5 L 513 530 L 511 530 L 511 524.5 L 508 519.5 Q 508.75 516.25 507 515.5 L 507 504.5 L 510 497.5 L 512.5 495 Z " /><path fill="rgb(255,255,255)" stroke="rgb(255,255,255)" stroke-width="1" opacity="1" d="M 256 532 L 295 532 L 295 571 L 256 571 L 256 532 Z " /><path fill="rgb(255,255,255)" stroke="rgb(255,255,255)" stroke-width="1" opacity="1" d="M 453.5 532 L 457 539.5 L 465.5 549 L 469 550 Q 467.88 552.67 470.5 552 L 479.5 557 Q 482.75 556.25 483.5 558 L 490.5 558 L 492.5 560 L 498.5 560 Q 499.75 556.75 505.5 558 L 505 559.5 L 505 565.5 L 507 570 Q 509.67 568.88 509 571.5 Q 511.5 572.5 511 575 Q 513.88 574.5 515 577.5 L 517.5 581 Q 520.5 580.5 521 582.5 Q 520.17 585.13 523.5 584 Q 525.32 586.6 529 586 Q 527.69 589.33 532.5 588 L 538.5 590 L 553.5 590 L 554.5 589 L 559.5 589 Q 560.62 587 564 588 Q 562.75 585 566.5 586 L 570.5 584 L 571 650 L 649 650 L 649 807 L 532 807 L 532 729 L 571 729 L 571 768 L 611 768 L 611 689 L 532 689 L 532 649 L 453 649 L 453 611 L 493 611 L 493 571 L 453 571 L 453.5 532 Z " /><path fill="rgb(255,255,255)" stroke="rgb(255,255,255)" stroke-width="1" opacity="1" d="M 514.5 554 L 516 554.5 L 514.5 555 L 514.5 554 Z " /><path fill="rgb(255,255,255)" stroke="rgb(255,255,255)" stroke-width="1" opacity="1" d="M 138 572 L 177 572 L 177 610 L 138 610 L 138 572 Z " /><path fill="rgb(255,255,255)" stroke="rgb(255,255,255)" stroke-width="1" opacity="1" d="M 217 572 L 256 572 L 256 610 L 217 610 L 217 572 Z " /><path fill="rgb(255,255,255)" stroke="rgb(255,255,255)" stroke-width="1" opacity="1" d="M 296 572 L 374 572 L 374 610 L 296 610 L 296 572 Z " /><path fill="rgb(255,255,255)" stroke="rgb(255,255,255)" stroke-width="1" opacity="1" d="M 414 572 L 452 572 L 452 610 L 414 610 L 414 572 Z " /><path fill="rgb(255,255,255)" stroke="rgb(255,255,255)" stroke-width="1" opacity="1" d="M 178 611 L 216 611 L 216 649 L 178 649 L 178 611 Z " /><path fill="rgb(255,255,255)" stroke="rgb(255,255,255)" stroke-width="1" opacity="1" d="M 256 611 L 295 611 L 295 649 L 256 649 L 256 611 Z " /><path fill="rgb(255,255,255)" stroke="rgb(255,255,255)" stroke-width="1" opacity="1" d="M 375 611 L 413 611 L 413 650 L 452 650 L 452 689 L 375 689 L 375 611 Z " /><path fill="rgb(255,255,255)" stroke="rgb(255,255,255)" stroke-width="1" opacity="1" d="M 690 690 L 807 690 L 807 807 L 690 807 L 690 690 Z M 728 728 L 728 768 L 768 768 L 768 728 L 728 728 Z " /><path fill="rgb(255,255,255)" stroke="rgb(255,255,255)" stroke-width="1" opacity="1" d="M 60 768 L 256 768 L 256 964 L 60 964 L 60 768 Z M 98 807 L 98 926 L 217 926 L 217 807 L 98 807 Z " /><path fill="rgb(255,255,255)" stroke="rgb(255,255,255)" stroke-width="1" opacity="1" d="M 650 847 L 689 847 L 689 886 L 650 886 L 650 847 Z " /><path fill="rgb(255,255,255)" stroke="rgb(255,255,255)" stroke-width="1" opacity="1" d="M 729 847 L 807 847 L 807 886 L 768 886 L 768 925 L 729 925 L 729 847 Z " /><path fill="rgb(255,255,255)" stroke="rgb(255,255,255)" stroke-width="1" opacity="1" d="M 414 887 L 452 887 L 452 925 L 414 925 L 414 887 Z " /><path fill="rgb(184,144,159)" stroke="rgb(184,144,159)" stroke-width="1" opacity="1" d="M 20.5 19 L 294.5 19 L 296 20.5 L 296 294.5 L 294.5 296 L 20.5 296 L 19 294.5 L 19 20.5 L 20.5 19 Z M 20 20 L 20 295 L 295 295 L 295 20 L 20 20 Z " /><path fill="rgb(184,144,159)" stroke="rgb(184,144,159)" stroke-width="1" opacity="1" d="M 335.5 19 L 491.5 19 L 493 20.5 L 493 97.5 L 491.5 99 L 453 98.5 L 492 98 L 492 20 L 335.5 20 L 335.5 19 Z " /><path fill="rgb(184,144,159)" stroke="rgb(184,144,159)" stroke-width="1" opacity="1" d="M 729.5 19 L 1003.5 19 L 1005 20.5 L 1005 294.5 L 1003.5 296 L 729.5 296 L 728 294.5 L 728 20.5 L 729.5 19 Z M 729 20 L 729 295 L 1004 295 L 1004 20 L 729 20 Z " /><path fill="rgb(184,144,159)" stroke="rgb(184,144,159)" stroke-width="1" opacity="1" d="M 98 98 L 217 98.5 L 99 99 L 98.5 217 L 98 98 Z " /><path fill="rgb(184,144,159)" stroke="rgb(184,144,159)" stroke-width="1" opacity="1" d="M 335.5 98 L 414 98 L 414 137.5 L 413 137.5 L 413 99 L 335.5 99 L 335.5 98 Z " /><path fill="rgb(184,144,159)" stroke="rgb(184,144,159)" stroke-width="1" opacity="1" d="M 532.5 98 L 611 98 L 611 137.5 L 610 137.5 L 610 99 L 532 99 L 531.5 138 L 531 99.5 L 532.5 98 Z " /><path fill="rgb(184,144,159)" stroke="rgb(184,144,159)" stroke-width="1" opacity="1" d="M 650.5 98 L 689 98.5 L 650.5 99 L 650.5 98 Z " /><path fill="rgb(184,144,159)" stroke="rgb(184,144,159)" stroke-width="1" opacity="1" d="M 807.5 98 L 926 98 L 926 216.5 L 925 216.5 L 925 99 L 807.5 99 L 807.5 98 Z " /><path fill="rgb(184,144,159)" stroke="rgb(184,144,159)" stroke-width="1" opacity="1" d="M 571.5 177 L 571.5 178 L 571.5 177 Z " /><path fill="rgb(184,144,159)" stroke="rgb(184,144,159)" stroke-width="1" opacity="1" d="M 649.5 177 L 649.5 178 L 649.5 177 Z " /><path fill="rgb(184,144,159)" stroke="rgb(184,144,159)" stroke-width="1" opacity="1" d="M 216.5 216 L 216.5 217 L 216.5 216 Z " /><path fill="rgb(184,144,159)" stroke="rgb(184,144,159)" stroke-width="1" opacity="1" d="M 374.5 216 L 453 216.5 L 374.5 217 L 374.5 216 Z " /><path fill="rgb(184,144,159)" stroke="rgb(184,144,159)" stroke-width="1" opacity="1" d="M 807.5 216 L 807.5 217 L 807.5 216 Z " /><path fill="rgb(184,144,159)" stroke="rgb(184,144,159)" stroke-width="1" opacity="1" d="M 413.5 256 L 414 295 L 453 295.5 L 414 296 L 413.5 374 L 413.5 256 Z " /><path fill="rgb(184,144,159)" stroke="rgb(184,144,159)" stroke-width="1" opacity="1" d="M 610.5 256 L 611 294.5 L 609.5 296 L 571.5 296 L 571.5 295 L 610 295 L 610.5 256 Z " /><path fill="rgb(184,144,159)" stroke="rgb(184,144,159)" stroke-width="1" opacity="1" d="M 335.5 295 L 374 295.5 L 335.5 296 L 335.5 295 Z " /><path fill="rgb(184,144,159)" stroke="rgb(184,144,159)" stroke-width="1" opacity="1" d="M 492.5 295 L 532 295.5 L 492.5 296 L 492.5 295 Z " /><path fill="rgb(184,144,159)" stroke="rgb(184,144,159)" stroke-width="1" opacity="1" d="M 649.5 334 L 649.5 335 L 649.5 334 Z " /><path fill="rgb(184,144,159)" stroke="rgb(184,144,159)" stroke-width="1" opacity="1" d="M 689.5 334 L 689.5 335 L 689.5 334 Z " /><path fill="rgb(184,144,159)" stroke="rgb(184,144,159)" stroke-width="1" opacity="1" d="M 19.5 335 L 20 373.5 L 19 373.5 L 19.5 335 Z " /><path fill="rgb(184,144,159)" stroke="rgb(184,144,159)" stroke-width="1" opacity="1" d="M 295.5 335 L 296 373.5 L 295 373.5 L 295.5 335 Z " /><path fill="rgb(184,144,159)" stroke="rgb(184,144,159)" stroke-width="1" opacity="1" d="M 610.5 335 L 611 412.5 L 609.5 414 L 571.5 414 L 571.5 413 L 610 413 L 610.5 335 Z " /><path fill="rgb(184,144,159)" stroke="rgb(184,144,159)" stroke-width="1" opacity="1" d="M 925.5 335 L 926 413 L 965 413.5 L 926 414 L 925.5 453 L 925 414 L 886 413.5 L 925 413 L 925.5 335 Z " /><path fill="rgb(184,144,159)" stroke="rgb(184,144,159)" stroke-width="1" opacity="1" d="M 1004.5 335 L 1005 452.5 L 1004 452.5 L 1004.5 335 Z " /><path fill="rgb(184,144,159)" stroke="rgb(184,144,159)" stroke-width="1" opacity="1" d="M 374.5 374 L 374.5 375 L 374.5 374 Z " /><path fill="rgb(184,144,159)" stroke="rgb(184,144,159)" stroke-width="1" opacity="1" d="M 689.5 374 L 689.5 375 L 689.5 374 Z " /><path fill="rgb(184,144,159)" stroke="rgb(184,144,159)" stroke-width="1" opacity="1" d="M 728.5 374 L 729 413 L 768 413.5 L 650.5 414 L 650.5 413 L 728 413 L 728.5 374 Z " /><path fill="rgb(184,144,159)" stroke="rgb(184,144,159)" stroke-width="1" opacity="1" d="M 807.5 374 L 808 413 L 846 413.5 L 808.5 414 L 807 412.5 L 807.5 374 Z " /><path fill="rgb(184,144,159)" stroke="rgb(184,144,159)" stroke-width="1" opacity="1" d="M 846.5 374 L 846.5 375 L 846.5 374 Z " /><path fill="rgb(184,144,159)" stroke="rgb(184,144,159)" stroke-width="1" opacity="1" d="M 59.5 413 L 177 413.5 L 59.5 414 L 59.5 413 Z " /><path fill="rgb(184,144,159)" stroke="rgb(184,144,159)" stroke-width="1" opacity="1" d="M 217.5 413 L 453 413.5 L 296 414 L 295.5 453 L 295 414 L 217.5 414 L 217.5 413 Z " /><path fill="rgb(184,144,159)" stroke="rgb(184,144,159)" stroke-width="1" opacity="1" d="M 470.5 436 L 482.5 436 L 483.5 437 L 492.5 438 L 494.5 440 L 501.5 443 L 512 452.5 L 517 460.5 L 517 465 Q 510.28 465.83 505.5 470 L 501.5 470 L 493.5 459 L 483.5 454 L 470.5 454 Q 462.5 456.5 458 462.5 L 454 469.5 Q 454.75 472.75 453 473.5 L 453 483.5 L 456 492 L 489.5 492 Q 490.25 491.75 490 494.5 L 487.5 501 L 487 498.5 L 489 493 L 457 493.5 L 465 509.5 L 465 511.5 L 470 519.5 L 471 523.5 L 474 528.5 L 480.5 535 L 488.5 539 L 496.5 540 L 497.5 539 L 501.5 539 L 506.5 537 L 515 529.5 L 519 521.5 L 519 516.5 L 520 513.5 Q 517.75 512.25 519 507.5 L 515 499.5 L 515 494.5 L 515.5 493 L 512 492.5 L 519.5 492 L 525.5 489 L 527.5 489 L 532 491 L 534 499.5 L 536 502.5 L 536 506.5 L 537 507.5 L 537 521.5 Q 535 522.5 536 526.5 L 531 537.5 L 520.5 549 L 511.5 554 L 505.5 556 Q 502.25 555.25 501.5 557 L 488.5 557 L 487.5 556 L 484.5 556 L 478.5 554 L 472.5 551 L 460 539.5 L 448 516.5 L 448 514.5 L 445 510.5 L 445 508.5 L 438 494.5 L 436 488.5 L 435 475.5 L 436 474.5 L 436 468.5 L 438 462.5 L 446.5 449 Q 448.75 449.75 448 447.5 L 454.5 442 L 462.5 438 L 469.5 437 L 470.5 436 Z " /><path fill="rgb(184,144,159)" stroke="rgb(184,144,159)" stroke-width="1" opacity="1" d="M 413.5 453 L 414 491.5 L 413 491.5 L 413.5 453 Z " /><path fill="rgb(184,144,159)" stroke="rgb(184,144,159)" stroke-width="1" opacity="1" d="M 532.5 467 L 536 467.5 L 532.5 468 L 532.5 467 Z " /><path fill="rgb(184,144,159)" stroke="rgb(184,144,159)" stroke-width="1" opacity="1" d="M 537.5 468 L 540.5 468 L 550.5 472 L 562 481.5 L 566 487.5 Q 565 489 564 486.5 L 553.5 475 L 546.5 471 L 540.5 469 L 537.5 469 L 537.5 468 Z " /><path fill="rgb(184,144,159)" stroke="rgb(184,144,159)" stroke-width="1" opacity="1" d="M 532.5 485 L 539 487.5 L 537.5 488 Q 536.75 486.25 533.5 487 Q 531 486 532.5 485 Z " /><path fill="rgb(184,144,159)" stroke="rgb(184,144,159)" stroke-width="1" opacity="1" d="M 540.5 488 L 540.5 489 L 540.5 488 Z " /><path fill="rgb(184,144,159)" stroke="rgb(184,144,159)" stroke-width="1" opacity="1" d="M 542.5 489 L 547 492.5 Q 554.1 501.9 559 513.5 Q 558 515 557 512.5 L 549 496.5 L 542 489.5 L 542.5 489 Z " /><path fill="rgb(184,144,159)" stroke="rgb(184,144,159)" stroke-width="1" opacity="1" d="M 566.5 489 L 571 497.5 L 570 497.5 L 566 489.5 L 566.5 489 Z " /><path fill="rgb(184,144,159)" stroke="rgb(184,144,159)" stroke-width="1" opacity="1" d="M 98.5 492 L 99 570.5 L 98 570.5 L 98.5 492 Z " /><path fill="rgb(184,144,159)" stroke="rgb(184,144,159)" stroke-width="1" opacity="1" d="M 177.5 492 L 217 492 L 217 570.5 L 216 570.5 L 216 493 L 177.5 493 L 177.5 492 Z " /><path fill="rgb(184,144,159)" stroke="rgb(184,144,159)" stroke-width="1" opacity="1" d="M 295 492 L 335 492.5 L 296 493 L 296 531 L 334.5 531 L 334.5 532 L 295 532 L 295 492 Z " /><path fill="rgb(184,144,159)" stroke="rgb(184,144,159)" stroke-width="1" opacity="1" d="M 610.5 492 L 611 531 L 650 531.5 L 611.5 532 L 610 530.5 L 610.5 492 Z " /><path fill="rgb(184,144,159)" stroke="rgb(184,144,159)" stroke-width="1" opacity="1" d="M 689.5 492 L 729 492 L 729 570.5 L 728 570.5 L 728 493 L 689.5 493 L 689.5 492 Z " /><path fill="rgb(184,144,159)" stroke="rgb(184,144,159)" stroke-width="1" opacity="1" d="M 807 492 L 886 492.5 L 808 493 L 807.5 571 L 807 492 Z " /><path fill="rgb(184,144,159)" stroke="rgb(184,144,159)" stroke-width="1" opacity="1" d="M 19.5 493 L 20 530.5 L 19 530.5 L 19.5 493 Z " /><path fill="rgb(184,144,159)" stroke="rgb(184,144,159)" stroke-width="1" opacity="1" d="M 510.5 493 L 511 494.5 L 508.5 497 L 508 496.5 L 510.5 493 Z " /><path fill="rgb(184,144,159)" stroke="rgb(184,144,159)" stroke-width="1" opacity="1" d="M 1004.5 493 L 1005 609.5 L 1003.5 611 L 965.5 611 L 965.5 610 L 1003.5 610 L 1004 609.5 L 1004.5 493 Z " /><path fill="rgb(184,144,159)" stroke="rgb(184,144,159)" stroke-width="1" opacity="1" d="M 507.5 498 L 507.5 499 L 507.5 498 Z " /><path fill="rgb(184,144,159)" stroke="rgb(184,144,159)" stroke-width="1" opacity="1" d="M 506.5 500 L 507 501.5 L 505 506.5 L 505 513.5 L 508 522.5 L 507 522.5 L 504 513.5 L 504 506.5 L 506.5 500 Z " /><path fill="rgb(184,144,159)" stroke="rgb(184,144,159)" stroke-width="1" opacity="1" d="M 486.5 503 L 487 517.5 L 486 517.5 L 486.5 503 Z " /><path fill="rgb(184,144,159)" stroke="rgb(184,144,159)" stroke-width="1" opacity="1" d="M 559.5 515 L 563 522.5 L 562 522.5 L 559 516.5 L 559.5 515 Z " /><path fill="rgb(184,144,159)" stroke="rgb(184,144,159)" stroke-width="1" opacity="1" d="M 487.5 519 L 488 521.5 L 487 521.5 L 487.5 519 Z " /><path fill="rgb(184,144,159)" stroke="rgb(184,144,159)" stroke-width="1" opacity="1" d="M 488.5 523 L 491 529.5 L 490 529.5 L 488 525.5 L 488.5 523 Z " /><path fill="rgb(184,144,159)" stroke="rgb(184,144,159)" stroke-width="1" opacity="1" d="M 508.5 524 Q 511 525 510 529.5 Q 507.25 533.75 501.5 535 L 501.5 534 Q 506.54 533.04 509 529.5 L 509 525.5 L 508.5 524 Z " /><path fill="rgb(184,144,159)" stroke="rgb(184,144,159)" stroke-width="1" opacity="1" d="M 563.5 524 L 566 529.5 L 565 529.5 L 563 525.5 L 563.5 524 Z " /><path fill="rgb(184,144,159)" stroke="rgb(184,144,159)" stroke-width="1" opacity="1" d="M 491.5 531 L 494.5 535 L 500 535.5 L 494.5 536 Q 491.31 534.06 491.5 531 Z " /><path fill="rgb(184,144,159)" stroke="rgb(184,144,159)" stroke-width="1" opacity="1" d="M 566.5 531 L 567 532.5 L 566 532.5 L 566.5 531 Z " /><path fill="rgb(184,144,159)" stroke="rgb(184,144,159)" stroke-width="1" opacity="1" d="M 926.5 531 L 965 531.5 L 926 532 L 926 611 L 886.5 611 L 886.5 610 L 925 610 L 925 532.5 L 926.5 531 Z " /><path fill="rgb(184,144,159)" stroke="rgb(184,144,159)" stroke-width="1" opacity="1" d="M 567.5 534 L 570 541.5 L 569 541.5 L 567 535.5 L 567.5 534 Z " /><path fill="rgb(184,144,159)" stroke="rgb(184,144,159)" stroke-width="1" opacity="1" d="M 570.5 543 L 571 550.5 L 570 550.5 L 570.5 543 Z " /><path fill="rgb(184,144,159)" stroke="rgb(184,144,159)" stroke-width="1" opacity="1" d="M 569.5 552 L 570 554.5 Q 567.08 562.58 560.5 567 L 556.5 569 L 556.5 568 Q 562.67 565.67 566 560.5 L 569.5 552 Z " /><path fill="rgb(184,144,159)" stroke="rgb(184,144,159)" stroke-width="1" opacity="1" d="M 520.5 553 L 524 555.5 L 525 557.5 Q 524 559 523 556.5 L 521.5 554 Q 519.13 553.88 520.5 553 Z " /><path fill="rgb(184,144,159)" stroke="rgb(184,144,159)" stroke-width="1" opacity="1" d="M 518.5 554 Q 520 555 517.5 556 L 512.5 558 L 512.5 557 L 518.5 554 Z " /><path fill="rgb(184,144,159)" stroke="rgb(184,144,159)" stroke-width="1" opacity="1" d="M 509.5 558 L 511 558.5 Q 509.23 560.56 506 560 L 508 565.5 Q 507 567 506 564.5 L 505 560.5 L 509.5 558 Z " /><path fill="rgb(184,144,159)" stroke="rgb(184,144,159)" stroke-width="1" opacity="1" d="M 525.5 559 Q 530 566.5 539 569.5 L 537.5 570 L 528 563.5 L 525 559.5 L 525.5 559 Z " /><path fill="rgb(184,144,159)" stroke="rgb(184,144,159)" stroke-width="1" opacity="1" d="M 508.5 567 L 512 571.5 L 511.5 572 L 509 569.5 L 508.5 567 Z " /><path fill="rgb(184,144,159)" stroke="rgb(184,144,159)" stroke-width="1" opacity="1" d="M 553.5 569 L 555 569.5 L 553.5 570 L 553.5 569 Z " /><path fill="rgb(184,144,159)" stroke="rgb(184,144,159)" stroke-width="1" opacity="1" d="M 541.5 570 L 551 570.5 L 541.5 571 L 541.5 570 Z " /><path fill="rgb(184,144,159)" stroke="rgb(184,144,159)" stroke-width="1" opacity="1" d="M 19.5 571 L 20 610 L 294.5 610 L 295 609.5 L 295 571.5 L 296 571.5 L 296 609.5 L 296.5 610 L 413 610 L 413.5 571 L 414 610 L 492 610 L 492 571.5 L 493 571.5 L 493 609.5 L 491.5 611 L 414 611 L 414 649.5 L 413 649.5 L 413 611.5 L 412.5 611 L 217 611 L 216.5 650 L 216 611 L 20.5 611 L 19 609.5 L 19.5 571 Z " /><path fill="rgb(184,144,159)" stroke="rgb(184,144,159)" stroke-width="1" opacity="1" d="M 512.5 573 L 516 575.5 Q 515.25 577.75 517.5 577 L 524 582.5 L 523.5 583 L 521.5 581 L 516.5 578 L 512 573.5 L 512.5 573 Z " /><path fill="rgb(184,144,159)" stroke="rgb(184,144,159)" stroke-width="1" opacity="1" d="M 570.5 581 Q 572 582 569.5 583 L 560.5 587 L 560.5 586 L 566.5 584 L 570.5 581 Z " /><path fill="rgb(184,144,159)" stroke="rgb(184,144,159)" stroke-width="1" opacity="1" d="M 525.5 583 L 533 586.5 L 531.5 587 L 528.5 585 L 526.5 585 Q 524 584 525.5 583 Z " /><path fill="rgb(184,144,159)" stroke="rgb(184,144,159)" stroke-width="1" opacity="1" d="M 534.5 587 L 537.5 588 L 542.5 588 L 543.5 589 L 548.5 589 L 549.5 588 L 555.5 588 L 558.5 587 L 558.5 588 L 555.5 589 L 550.5 589 L 549.5 590 L 543.5 590 L 542.5 589 L 537.5 589 L 534.5 588 L 534.5 587 Z " /><path fill="rgb(184,144,159)" stroke="rgb(184,144,159)" stroke-width="1" opacity="1" d="M 690.5 610 L 729 610.5 L 690.5 611 L 690.5 610 Z " /><path fill="rgb(184,144,159)" stroke="rgb(184,144,159)" stroke-width="1" opacity="1" d="M 768.5 610 L 846 610.5 L 768.5 611 L 768.5 610 Z " /><path fill="rgb(184,144,159)" stroke="rgb(184,144,159)" stroke-width="1" opacity="1" d="M 137.5 649 L 137.5 650 L 137.5 649 Z " /><path fill="rgb(184,144,159)" stroke="rgb(184,144,159)" stroke-width="1" opacity="1" d="M 177.5 649 L 177.5 650 L 177.5 649 Z " /><path fill="rgb(184,144,159)" stroke="rgb(184,144,159)" stroke-width="1" opacity="1" d="M 689.5 649 L 689.5 650 L 689.5 649 Z " /><path fill="rgb(184,144,159)" stroke="rgb(184,144,159)" stroke-width="1" opacity="1" d="M 19.5 650 L 20 688.5 L 19 688.5 L 19.5 650 Z " /><path fill="rgb(184,144,159)" stroke="rgb(184,144,159)" stroke-width="1" opacity="1" d="M 925.5 650 L 926 688.5 L 925 688.5 L 925.5 650 Z " /><path fill="rgb(184,144,159)" stroke="rgb(184,144,159)" stroke-width="1" opacity="1" d="M 334.5 689 L 334.5 690 L 334.5 689 Z " /><path fill="rgb(184,144,159)" stroke="rgb(184,144,159)" stroke-width="1" opacity="1" d="M 610.5 689 L 611 767.5 L 610 767.5 L 610.5 689 Z " /><path fill="rgb(184,144,159)" stroke="rgb(184,144,159)" stroke-width="1" opacity="1" d="M 689.5 689 L 689.5 690 L 689.5 689 Z " /><path fill="rgb(184,144,159)" stroke="rgb(184,144,159)" stroke-width="1" opacity="1" d="M 964.5 689 L 964.5 690 L 964.5 689 Z " /><path fill="rgb(184,144,159)" stroke="rgb(184,144,159)" stroke-width="1" opacity="1" d="M 1004.5 689 L 1005 846.5 L 1004 846.5 L 1004.5 689 Z " /><path fill="rgb(184,144,159)" stroke="rgb(184,144,159)" stroke-width="1" opacity="1" d="M 20.5 728 L 294.5 728 L 296 729.5 L 296 1003.5 L 294.5 1005 L 20.5 1005 L 19 1003.5 L 19 729.5 L 20.5 728 Z M 20 729 L 20 1004 L 295 1004 L 295 729 L 20 729 Z " /><path fill="rgb(184,144,159)" stroke="rgb(184,144,159)" stroke-width="1" opacity="1" d="M 452.5 728 L 452.5 729 L 452.5 728 Z " /><path fill="rgb(184,144,159)" stroke="rgb(184,144,159)" stroke-width="1" opacity="1" d="M 729.5 728 L 768 728.5 L 729 729 L 728.5 768 L 728 729.5 L 729.5 728 Z " /><path fill="rgb(184,144,159)" stroke="rgb(184,144,159)" stroke-width="1" opacity="1" d="M 413.5 768 L 414 806.5 L 412.5 808 L 335.5 808 L 335.5 807 L 413 807 L 413.5 768 Z " /><path fill="rgb(184,144,159)" stroke="rgb(184,144,159)" stroke-width="1" opacity="1" d="M 98.5 807 L 99 925 L 217 925.5 L 98 926 L 98.5 807 Z " /><path fill="rgb(184,144,159)" stroke="rgb(184,144,159)" stroke-width="1" opacity="1" d="M 216.5 807 L 216.5 808 L 216.5 807 Z " /><path fill="rgb(184,144,159)" stroke="rgb(184,144,159)" stroke-width="1" opacity="1" d="M 453.5 807 L 532 807 L 532 885.5 L 531 885.5 L 531 808 L 453.5 808 L 453.5 807 Z " /><path fill="rgb(184,144,159)" stroke="rgb(184,144,159)" stroke-width="1" opacity="1" d="M 964.5 846 L 964.5 847 L 964.5 846 Z " /><path fill="rgb(184,144,159)" stroke="rgb(184,144,159)" stroke-width="1" opacity="1" d="M 413.5 847 L 414 925 L 492 925 L 492 886.5 L 493 886.5 L 493 924.5 L 491.5 926 L 414 926 L 414 1004 L 571 1004.5 L 414.5 1005 L 413 1003.5 L 413 926 L 375 925.5 L 413 925 L 413.5 847 Z " /><path fill="rgb(184,144,159)" stroke="rgb(184,144,159)" stroke-width="1" opacity="1" d="M 610.5 847 L 611 1004 L 689 1004.5 L 611.5 1005 L 610 1003.5 L 610.5 847 Z " /><path fill="rgb(184,144,159)" stroke="rgb(184,144,159)" stroke-width="1" opacity="1" d="M 886.5 886 L 886.5 887 L 886.5 886 Z " /><path fill="rgb(184,144,159)" stroke="rgb(184,144,159)" stroke-width="1" opacity="1" d="M 925.5 886 L 926 925 L 1004 925 L 1004 886.5 L 1005 886.5 L 1005 924.5 L 1003.5 926 L 925 926 L 925.5 886 Z " /><path fill="rgb(184,144,159)" stroke="rgb(184,144,159)" stroke-width="1" opacity="1" d="M 532.5 925 L 571 925.5 L 532 926 L 531.5 965 L 531 926.5 L 532.5 925 Z " /><path fill="rgb(184,144,159)" stroke="rgb(184,144,159)" stroke-width="1" opacity="1" d="M 690.5 925 L 768 925.5 L 729 926 L 729 1004 L 767.5 1004 L 767.5 1005 L 729.5 1005 L 728 1003.5 L 728 926 L 690.5 926 L 690.5 925 Z " /><path fill="rgb(184,144,159)" stroke="rgb(184,144,159)" stroke-width="1" opacity="1" d="M 847.5 925 L 886 925.5 L 847.5 926 L 847.5 925 Z " /><path fill="rgb(184,144,159)" stroke="rgb(184,144,159)" stroke-width="1" opacity="1" d="M 1004.5 965 L 1005 1003.5 L 1003.5 1005 L 965.5 1005 L 965.5 1004 L 1004 1004 L 1004.5 965 Z " /><path fill="rgb(184,144,159)" stroke="rgb(184,144,159)" stroke-width="1" opacity="1" d="M 335.5 1004 L 374 1004.5 L 335.5 1005 L 335.5 1004 Z " /><path fill="rgb(184,144,159)" stroke="rgb(184,144,159)" stroke-width="1" opacity="1" d="M 847.5 1004 L 886 1004.5 L 847.5 1005 L 847.5 1004 Z " /><path fill="rgb(40,39,86)" stroke="rgb(40,39,86)" stroke-width="1" opacity="1" d="M 216.5 99 L 217 215.5 L 215.5 217 L 99.5 217 L 99.5 216 L 216 216 L 216.5 99 Z " /><path fill="rgb(40,39,86)" stroke="rgb(40,39,86)" stroke-width="1" opacity="1" d="M 374.5 99 L 375 137 L 413 137.5 L 374 138 L 374.5 99 Z " /><path fill="rgb(40,39,86)" stroke="rgb(40,39,86)" stroke-width="1" opacity="1" d="M 807.5 99 L 808 216 L 925 216.5 L 808.5 217 L 807 215.5 L 807.5 99 Z " /><path fill="rgb(40,39,86)" stroke="rgb(40,39,86)" stroke-width="1" opacity="1" d="M 532.5 137 L 571 137.5 L 532 138 L 532 177 L 570.5 177 L 570.5 178 L 532.5 178 L 531 176.5 L 531 138.5 L 532.5 137 Z " /><path fill="rgb(40,39,86)" stroke="rgb(40,39,86)" stroke-width="1" opacity="1" d="M 649.5 138 L 650 177 L 689 177.5 L 650.5 178 L 649 176.5 L 649.5 138 Z " /><path fill="rgb(40,39,86)" stroke="rgb(40,39,86)" stroke-width="1" opacity="1" d="M 453.5 216 L 493 216 L 493 294.5 L 492 294.5 L 492 217 L 453.5 217 L 453.5 216 Z " /><path fill="rgb(40,39,86)" stroke="rgb(40,39,86)" stroke-width="1" opacity="1" d="M 531 216 L 571 216.5 L 532 217 L 531.5 295 L 531 216 Z " /><path fill="rgb(40,39,86)" stroke="rgb(40,39,86)" stroke-width="1" opacity="1" d="M 374.5 217 L 375 255.5 L 374 255.5 L 374.5 217 Z " /><path fill="rgb(40,39,86)" stroke="rgb(40,39,86)" stroke-width="1" opacity="1" d="M 374 295 L 413 295.5 L 375 296 L 375 373.5 L 373.5 375 L 296 375 L 296 412.5 L 295 412.5 L 295 374 L 374 374 L 374 295 Z " /><path fill="rgb(40,39,86)" stroke="rgb(40,39,86)" stroke-width="1" opacity="1" d="M 137.5 335 L 138 374 L 256 374.5 L 138.5 375 L 137 373.5 L 137.5 335 Z " /><path fill="rgb(40,39,86)" stroke="rgb(40,39,86)" stroke-width="1" opacity="1" d="M 531.5 335 L 532 374 L 571 374.5 L 532.5 375 L 531 373.5 L 531.5 335 Z " /><path fill="rgb(40,39,86)" stroke="rgb(40,39,86)" stroke-width="1" opacity="1" d="M 846.5 335 L 847 374 L 886 374.5 L 847.5 375 L 846 373.5 L 846.5 335 Z " /><path fill="rgb(40,39,86)" stroke="rgb(40,39,86)" stroke-width="1" opacity="1" d="M 492.5 374 L 493 437.5 L 494.5 439 L 496.5 439 L 504.5 444 L 514 453.5 L 516 457.5 Q 515 459 514 456.5 Q 511.33 449.67 505.5 446 Q 501.09 441.91 494.5 440 L 492 437.5 L 492.5 374 Z " /><path fill="rgb(40,39,86)" stroke="rgb(40,39,86)" stroke-width="1" opacity="1" d="M 216.5 413 L 217 492 L 295 492 L 295 453.5 L 296 453.5 L 296 491.5 L 294.5 493 L 217.5 493 L 216 491.5 L 216.5 413 Z " /><path fill="rgb(40,39,86)" stroke="rgb(40,39,86)" stroke-width="1" opacity="1" d="M 610.5 413 L 610.5 414 L 610.5 413 Z " /><path fill="rgb(40,39,86)" stroke="rgb(40,39,86)" stroke-width="1" opacity="1" d="M 807.5 413 L 807.5 414 L 807.5 413 Z " /><path fill="rgb(40,39,86)" stroke="rgb(40,39,86)" stroke-width="1" opacity="1" d="M 846.5 413 L 846.5 414 L 846.5 413 Z " /><path fill="rgb(40,39,86)" stroke="rgb(40,39,86)" stroke-width="1" opacity="1" d="M 177.5 414 L 178 491.5 L 176.5 493 L 138.5 493 L 138.5 492 L 177 492 L 177.5 414 Z " /><path fill="rgb(40,39,86)" stroke="rgb(40,39,86)" stroke-width="1" opacity="1" d="M 374.5 414 L 375 452.5 L 374 452.5 L 374.5 414 Z " /><path fill="rgb(40,39,86)" stroke="rgb(40,39,86)" stroke-width="1" opacity="1" d="M 649.5 414 L 650 452.5 L 649 452.5 L 649.5 414 Z " /><path fill="rgb(40,39,86)" stroke="rgb(40,39,86)" stroke-width="1" opacity="1" d="M 689.5 414 L 690 452.5 L 689 452.5 L 689.5 414 Z " /><path fill="rgb(40,39,86)" stroke="rgb(40,39,86)" stroke-width="1" opacity="1" d="M 728.5 414 L 729 492 L 768 492.5 L 729.5 493 L 728 491.5 L 728.5 414 Z " /><path fill="rgb(40,39,86)" stroke="rgb(40,39,86)" stroke-width="1" opacity="1" d="M 451.5 443 L 453 443.5 L 448 447.5 Q 448.75 449.75 446.5 449 L 445 449.5 L 451.5 443 Z " /><path fill="rgb(40,39,86)" stroke="rgb(40,39,86)" stroke-width="1" opacity="1" d="M 443 451 L 445 451.5 L 438 462.5 L 436 468.5 L 435 481.5 L 436 482.5 L 436 488.5 L 441 500.5 Q 440 502 439 499.5 L 434 484.5 L 434 472.5 L 435 471.5 L 435 468.5 L 437 462.5 L 442 454.5 L 443 451 Z " /><path fill="rgb(40,39,86)" stroke="rgb(40,39,86)" stroke-width="1" opacity="1" d="M 334.5 453 L 335 492 L 414 492.5 L 335.5 493 L 334 491.5 L 334.5 453 Z " /><path fill="rgb(40,39,86)" stroke="rgb(40,39,86)" stroke-width="1" opacity="1" d="M 531.5 453 L 532 468 L 540.5 469 L 550.5 473 L 564 485.5 L 572 500.5 L 573 504.5 L 575 506.5 L 575 508.5 L 580 517.5 L 580 519.5 L 587 534.5 Q 586.25 537.75 588 538.5 L 588 554.5 L 583 567.5 L 579 573.5 L 573.5 579 L 566.5 584 L 564.5 584 L 559.5 587 Q 556.25 586.25 555.5 588 L 549.5 588 L 548.5 589 L 543.5 589 L 542.5 588 L 533.5 587 L 528.5 584 L 526.5 584 L 517.5 577 L 516 577 L 514.5 574 L 512 572.5 L 507 564.5 L 506 560 L 508.5 560 L 517.5 556 L 519.5 554 L 521.5 554 L 530.5 566 L 537.5 570 Q 540.75 569.25 541.5 571 L 550.5 571 L 551.5 570 L 557.5 569 L 567 560.5 L 571 550.5 L 571 543.5 L 566 528.5 L 563 523.5 L 563 521.5 L 553 501.5 L 545.5 491 L 536.5 486 L 532 485 L 532 490.5 L 530.5 491 L 528 489.5 L 529.5 489 L 531 489.5 L 531 485 L 523.5 485 L 517.5 487 L 512 491.5 Q 512.75 493.75 510.5 493 L 505 502.5 Q 505.75 505.75 504 506.5 L 504 513.5 L 505 514.5 L 506 520.5 L 509 525.5 L 509 529.5 L 506.5 532 L 500.5 535 L 494.5 535 L 491 530.5 L 487 518.5 L 487 501.5 L 490 492.5 L 494 487.5 L 495 484.5 L 500 479.5 L 500 478 L 501.5 478 L 507.5 473 L 517.5 469 L 531 469 L 531.5 453 Z " /><path fill="rgb(40,39,86)" stroke="rgb(40,39,86)" stroke-width="1" opacity="1" d="M 470.5 454 L 474 454.5 Q 462.27 456.77 457 465.5 L 454 474.5 L 454 482.5 L 457 491.5 L 456 491.5 L 453 483.5 L 453 473.5 L 456 465.5 L 462.5 458 L 470.5 454 Z " /><path fill="rgb(40,39,86)" stroke="rgb(40,39,86)" stroke-width="1" opacity="1" d="M 480.5 454 L 486.5 455 L 496 461.5 L 499 467.5 L 501.5 470 L 505.5 470 L 513.5 466 Q 515 467 512.5 468 L 506.5 471 L 501.5 471 Q 497.87 469.13 497 464.5 L 490.5 458 L 480.5 455 L 480.5 454 Z " /><path fill="rgb(40,39,86)" stroke="rgb(40,39,86)" stroke-width="1" opacity="1" d="M 516.5 459 L 519 463.5 L 515.5 466 L 515.5 465 L 517 465 L 517 460.5 L 516.5 459 Z " /><path fill="rgb(40,39,86)" stroke="rgb(40,39,86)" stroke-width="1" opacity="1" d="M 522.5 489 L 525 489.5 L 517.5 492 L 517.5 491 L 522.5 489 Z " /><path fill="rgb(40,39,86)" stroke="rgb(40,39,86)" stroke-width="1" opacity="1" d="M 20.5 492 L 98 492.5 L 20.5 493 L 20.5 492 Z " /><path fill="rgb(40,39,86)" stroke="rgb(40,39,86)" stroke-width="1" opacity="1" d="M 571.5 492 L 610 492.5 L 571.5 493 L 571.5 492 Z " /><path fill="rgb(40,39,86)" stroke="rgb(40,39,86)" stroke-width="1" opacity="1" d="M 965.5 492 L 1004 492.5 L 965.5 493 L 965.5 492 Z " /><path fill="rgb(40,39,86)" stroke="rgb(40,39,86)" stroke-width="1" opacity="1" d="M 441.5 502 L 445 509.5 Q 444 511 443 508.5 L 443 506.5 L 441 503.5 L 441.5 502 Z " /><path fill="rgb(40,39,86)" stroke="rgb(40,39,86)" stroke-width="1" opacity="1" d="M 445.5 511 L 448 514.5 L 448 516.5 L 453 525.5 L 453 527.5 L 452 527.5 L 450 521.5 L 445 512.5 L 445.5 511 Z " /><path fill="rgb(40,39,86)" stroke="rgb(40,39,86)" stroke-width="1" opacity="1" d="M 20.5 531 L 59 531.5 L 20.5 532 L 20.5 531 Z " /><path fill="rgb(40,39,86)" stroke="rgb(40,39,86)" stroke-width="1" opacity="1" d="M 256.5 531 L 294.5 531 L 296 532.5 L 295.5 571 L 295 532 L 256.5 532 L 256.5 531 Z " /><path fill="rgb(40,39,86)" stroke="rgb(40,39,86)" stroke-width="1" opacity="1" d="M 610.5 531 L 610.5 532 L 610.5 531 Z " /><path fill="rgb(40,39,86)" stroke="rgb(40,39,86)" stroke-width="1" opacity="1" d="M 137.5 571 L 138 609.5 L 137 609.5 L 137.5 571 Z " /><path fill="rgb(40,39,86)" stroke="rgb(40,39,86)" stroke-width="1" opacity="1" d="M 177.5 571 L 178 609.5 L 177 609.5 L 177.5 571 Z " /><path fill="rgb(40,39,86)" stroke="rgb(40,39,86)" stroke-width="1" opacity="1" d="M 216.5 571 L 217 609.5 L 216 609.5 L 216.5 571 Z " /><path fill="rgb(40,39,86)" stroke="rgb(40,39,86)" stroke-width="1" opacity="1" d="M 374.5 571 L 375 609.5 L 374 609.5 L 374.5 571 Z " /><path fill="rgb(40,39,86)" stroke="rgb(40,39,86)" stroke-width="1" opacity="1" d="M 728.5 571 L 729 609.5 L 728 609.5 L 728.5 571 Z " /><path fill="rgb(40,39,86)" stroke="rgb(40,39,86)" stroke-width="1" opacity="1" d="M 689.5 610 L 689.5 611 L 689.5 610 Z " /><path fill="rgb(40,39,86)" stroke="rgb(40,39,86)" stroke-width="1" opacity="1" d="M 846.5 610 L 846.5 611 L 846.5 610 Z " /><path fill="rgb(40,39,86)" stroke="rgb(40,39,86)" stroke-width="1" opacity="1" d="M 295.5 611 L 296 649.5 L 295 649.5 L 295.5 611 Z " /><path fill="rgb(40,39,86)" stroke="rgb(40,39,86)" stroke-width="1" opacity="1" d="M 414.5 649 L 453 649.5 L 414.5 650 L 414.5 649 Z " /><path fill="rgb(40,39,86)" stroke="rgb(40,39,86)" stroke-width="1" opacity="1" d="M 571.5 649 L 650 649.5 L 571.5 650 L 571.5 649 Z " /><path fill="rgb(40,39,86)" stroke="rgb(40,39,86)" stroke-width="1" opacity="1" d="M 847.5 649 L 886 649.5 L 847 650 L 847 885.5 L 847.5 886 L 886 886 L 886.5 847 L 887 885.5 L 885.5 887 L 847.5 887 L 846 885.5 L 846 650.5 L 847.5 649 Z " /><path fill="rgb(40,39,86)" stroke="rgb(40,39,86)" stroke-width="1" opacity="1" d="M 531.5 650 L 532 689 L 610 689.5 L 532.5 690 L 531 688.5 L 531.5 650 Z " /><path fill="rgb(40,39,86)" stroke="rgb(40,39,86)" stroke-width="1" opacity="1" d="M 374.5 689 L 453 689.5 L 374.5 690 L 374.5 689 Z " /><path fill="rgb(40,39,86)" stroke="rgb(40,39,86)" stroke-width="1" opacity="1" d="M 492.5 689 L 493 767.5 L 492 767.5 L 492.5 689 Z " /><path fill="rgb(40,39,86)" stroke="rgb(40,39,86)" stroke-width="1" opacity="1" d="M 807.5 689 L 808 808 L 689 807.5 L 807 807 L 807.5 689 Z " /><path fill="rgb(40,39,86)" stroke="rgb(40,39,86)" stroke-width="1" opacity="1" d="M 965.5 689 L 1004 689.5 L 965.5 690 L 965.5 689 Z " /><path fill="rgb(40,39,86)" stroke="rgb(40,39,86)" stroke-width="1" opacity="1" d="M 335.5 728 L 452 728.5 L 335.5 729 L 335.5 728 Z " /><path fill="rgb(40,39,86)" stroke="rgb(40,39,86)" stroke-width="1" opacity="1" d="M 531 728 L 571 728.5 L 532 729 L 532 807 L 649.5 807 L 649.5 808 L 532.5 808 L 531 806.5 L 531 728 Z " /><path fill="rgb(40,39,86)" stroke="rgb(40,39,86)" stroke-width="1" opacity="1" d="M 99.5 807 L 215.5 807 L 217 808.5 L 216.5 925 L 216 808 L 99.5 808 L 99.5 807 Z " /><path fill="rgb(40,39,86)" stroke="rgb(40,39,86)" stroke-width="1" opacity="1" d="M 571.5 846 L 610 846.5 L 571.5 847 L 571.5 846 Z " /><path fill="rgb(40,39,86)" stroke="rgb(40,39,86)" stroke-width="1" opacity="1" d="M 650.5 846 L 688.5 846 L 690 847.5 L 690 885.5 L 688.5 887 L 650.5 887 L 649 885.5 L 649 847.5 L 650.5 846 Z M 650 847 L 650 886 L 689 886 L 689 847 L 650 847 Z " /><path fill="rgb(40,39,86)" stroke="rgb(40,39,86)" stroke-width="1" opacity="1" d="M 729.5 846 L 806.5 846 L 808 847.5 L 808 885.5 L 806.5 887 L 768 886.5 L 807 886 L 807 847 L 729 847 L 728.5 925 L 728 847.5 L 729.5 846 Z " /><path fill="rgb(40,39,86)" stroke="rgb(40,39,86)" stroke-width="1" opacity="1" d="M 965.5 846 L 1004 846.5 L 965.5 847 L 965.5 846 Z " /><path fill="rgb(40,39,86)" stroke="rgb(40,39,86)" stroke-width="1" opacity="1" d="M 335.5 886 L 413 886.5 L 335.5 887 L 335.5 886 Z " /><path fill="rgb(40,39,86)" stroke="rgb(40,39,86)" stroke-width="1" opacity="1" d="M 453.5 886 L 492 886.5 L 453.5 887 L 453.5 886 Z " /><path fill="rgb(40,39,86)" stroke="rgb(40,39,86)" stroke-width="1" opacity="1" d="M 965.5 886 L 1004 886.5 L 965.5 887 L 965.5 886 Z " /><path fill="rgb(40,39,86)" stroke="rgb(40,39,86)" stroke-width="1" opacity="1" d="M 374.5 925 L 374.5 926 L 374.5 925 Z " /><path fill="rgb(40,39,86)" stroke="rgb(40,39,86)" stroke-width="1" opacity="1" d="M 689.5 925 L 689.5 926 L 689.5 925 Z " /><path fill="rgb(40,39,86)" stroke="rgb(40,39,86)" stroke-width="1" opacity="1" d="M 846.5 926 L 847 964.5 L 846 964.5 L 846.5 926 Z " /></svg>